<svg width="386" height="394" viewBox="0 0 386 394" fill="none" xmlns="http://www.w3.org/2000/svg">
<g clip-path="url(#clip0_2_52)">
<path fill-rule="evenodd" clip-rule="evenodd" d="M-4.55476 188.749C-4.55476 188.749 -22.2958 173.548 2.59368 121.063C27.4832 68.5778 77.8891 80.0816 110.108 59.4373C157.713 28.9344 138.201 5.06366 197.561 1.21591C272.3 -3.62869 276.533 74.6604 313.925 74.6604C316.385 74.6604 374.613 51.1932 383.135 115.436C387.428 147.789 313.925 197.126 313.925 197.126C313.925 197.126 283.334 224.938 281.655 238.672C274.608 296.269 289.301 362.236 124.652 392.606C103.358 396.535 67.9998 382.326 48.4925 356.082C33.21 335.523 -28.0943 350.11 -33.8169 282.513C-36.7012 248.443 -4.55476 188.749 -4.55476 188.749Z" fill="white"/>
<path d="M105.272 143.082C105.827 142.754 106.543 142.939 106.87 143.496L108.192 145.732C113.439 154.563 115.538 157.431 117.769 158.727C119.602 159.793 121.498 159.462 124.968 157.42L125.432 157.141C127.615 155.777 137.602 148.896 141.463 146.425C142.007 146.077 142.729 146.237 143.075 146.782C143.422 147.327 143.263 148.051 142.719 148.399L142.125 148.783C137.822 151.581 128.155 158.239 126.444 159.266C122.243 161.785 119.518 162.352 116.789 160.861L116.599 160.753C113.666 159.049 111.385 155.78 104.859 144.686C104.532 144.129 104.716 143.411 105.272 143.082Z" fill="black"/>
<path d="M124.174 156.617C124.813 156.531 125.4 156.981 125.486 157.622C125.884 160.601 126.836 163.588 128.348 166.585C128.639 167.163 128.408 167.867 127.833 168.159C127.258 168.451 126.555 168.219 126.264 167.643C124.637 164.416 123.605 161.179 123.172 157.933C123.086 157.292 123.535 156.703 124.174 156.617Z" fill="black"/>
<path fill-rule="evenodd" clip-rule="evenodd" d="M260.17 228.134C259.981 228.612 259.569 229.272 259.09 229.899L259.502 230.329L259.981 230.841L260.087 230.944C260.134 230.985 260.171 231.01 260.198 231.017C260.353 231.04 260.459 231.182 260.439 231.338C260.416 231.492 260.274 231.603 260.121 231.58C259.979 231.576 259.47 231.377 258.864 230.882C258.754 230.792 258.643 230.689 258.533 230.576C258.181 230.968 257.828 231.304 257.523 231.514C257.072 231.826 256.683 231.85 256.498 231.725C256.314 231.601 256.138 231.19 256.436 230.355C256.483 230.205 256.644 230.124 256.791 230.173C256.941 230.22 257.021 230.377 256.975 230.529C256.93 230.683 256.924 230.824 256.924 230.938L257.096 230.82C257.156 230.775 257.22 230.726 257.276 230.668C257.485 230.462 257.717 230.212 257.951 229.942C257.583 229.509 257.205 229.002 256.898 228.417C256.75 228.132 256.63 227.83 256.518 227.511C256.44 227.332 256.52 227.124 256.698 227.045C256.875 226.967 257.085 227.047 257.162 227.225C257.502 227.94 257.938 228.556 258.366 229.085L258.508 229.255C258.899 228.743 259.236 228.224 259.388 227.83C259.472 227.614 259.715 227.507 259.93 227.589C260.147 227.676 260.256 227.918 260.17 228.134Z" fill="black"/>
<path fill-rule="evenodd" clip-rule="evenodd" d="M86.4723 80.4189L85.7608 80.2897C81.7874 79.5488 78.7408 78.6392 73.0497 76.66C72.3971 76.4332 72.0514 75.7183 72.2777 75.0637C72.5039 74.4091 73.2164 74.0624 73.8692 74.2894L75.2874 74.7791C80.2799 76.4879 83.081 77.2714 86.9067 77.948C99.7795 80.2248 109.418 73.5958 110.206 60.9533C110.249 60.2619 110.843 59.7364 111.533 59.7797C112.222 59.8229 112.746 60.4186 112.703 61.1101C111.816 75.3283 100.744 82.943 86.4723 80.4189Z" fill="black"/>
<path fill-rule="evenodd" clip-rule="evenodd" d="M118.641 93.9571L119.359 95.5581L120.997 96.0296C121.085 96.0549 121.136 96.1476 121.111 96.2363C121.103 96.2637 121.088 96.2887 121.068 96.3088L119.824 97.551L119.894 99.3386C119.898 99.4309 119.826 99.5086 119.734 99.5122C119.703 99.5135 119.672 99.506 119.645 99.4904L118.237 98.6859C118.192 98.6608 118.14 98.657 118.092 98.6758L116.586 99.276C116.501 99.3099 116.404 99.2681 116.37 99.1822C116.358 99.1531 116.355 99.1215 116.36 99.0908L116.678 97.3302L115.618 95.9266C115.563 95.8529 115.577 95.748 115.65 95.6923C115.673 95.675 115.7 95.6639 115.728 95.66L117.415 95.4217L118.348 93.9367C118.397 93.8585 118.5 93.835 118.578 93.8844C118.606 93.9018 118.628 93.9273 118.641 93.9571Z" fill="black"/>
<path d="M283.164 53.72C283.807 53.6739 284.367 54.1594 284.412 54.8045C284.458 55.4495 283.974 56.0097 283.33 56.0557C278.723 56.3853 275.106 58.176 273.499 62.6051C273.402 62.8717 273.323 63.1289 273.258 63.3736L273.215 63.5415L273.284 63.394C275.308 59.2497 279.212 56.3701 283.735 55.6394L284.03 55.5947C284.668 55.5054 285.257 55.9521 285.347 56.5925C285.437 57.233 284.992 57.8246 284.352 57.9141C280.151 58.5022 276.557 61.3032 274.988 65.3205L274.887 65.5901C274.142 67.6434 272.354 68.628 271.202 66.8708C270.5 65.7989 270.547 63.8955 271.305 61.8041C273.23 56.499 277.648 54.1148 283.164 53.72Z" fill="black"/>
<path d="M277.852 44.9965C278.493 44.9505 279.053 45.4361 279.097 46.0811C279.144 46.7261 278.66 47.2864 278.016 47.3323C270.689 47.8567 264.264 52.63 261.707 59.6754C260.95 61.764 260.809 63.5496 261.08 64.4539L261.112 64.5548L261.165 64.4802C261.296 64.2818 261.441 63.997 261.585 63.6276L261.647 63.4642C264.348 56.0223 270.895 50.8104 278.574 49.7354C279.213 49.6459 279.803 50.0926 279.892 50.7331C279.98 51.3735 279.535 51.9652 278.897 52.0545C272.18 52.9952 266.438 57.4923 263.965 63.9359L263.841 64.2651C262.839 67.0248 260.675 68.217 259.29 66.1038C258.34 64.6558 258.407 61.9222 259.513 58.8745C262.388 50.953 269.612 45.586 277.852 44.9965Z" fill="black"/>
<path d="M270.688 33.3662C271.329 33.3202 271.888 33.8058 271.933 34.4508C271.98 35.0958 271.496 35.6561 270.852 35.702C260.401 36.4499 251.238 43.2578 247.59 53.3067C246.35 56.7266 246.245 59.6251 246.924 60.83L246.986 60.9319C247.085 61.0852 247.051 61.0895 247.078 61.0685L247.094 61.0582C247.437 60.8692 247.891 60.2252 248.305 59.1569L248.387 58.9375C252.111 48.674 261.14 41.4863 271.733 40.0034C272.371 39.9141 272.96 40.3608 273.05 41.0013C273.14 41.6417 272.695 42.2334 272.055 42.3227C262.438 43.6693 254.223 50.1266 250.716 59.3722L250.581 59.7385C249.285 63.3092 246.687 64.7396 245.035 62.2179C243.802 60.3379 243.892 56.6514 245.396 52.5058C249.362 41.5811 259.326 34.1793 270.688 33.3662Z" fill="black"/>
<path d="M257.889 22.4357C258.522 22.3113 259.135 22.725 259.26 23.3597C259.384 23.9942 258.97 24.6094 258.338 24.7338C248.877 26.5924 241.268 33.8408 239.061 43.4285C238.314 46.6734 238.54 49.3117 239.274 50.3185L239.371 50.4446L239.379 50.4622L239.392 50.4515C239.653 50.214 239.96 49.6072 240.2 48.6663L240.248 48.4595C242.519 38.5989 250.014 30.9659 259.588 28.4027C260.211 28.2359 260.85 28.6072 261.017 29.232C261.181 29.8567 260.813 30.4984 260.19 30.6652C251.565 32.9746 244.788 39.7857 242.613 48.6123L242.523 48.9864C241.724 52.4641 239.425 54.1243 237.562 51.9228C236.2 50.3127 235.868 46.8961 236.786 42.9017C239.203 32.4059 247.532 24.4702 257.889 22.4357Z" fill="black"/>
<path d="M128.488 166.844L129.162 166.598C135.531 164.305 140.905 163.294 142.27 164.687C143.467 165.908 144.534 168.121 145.546 171.366C145.738 171.983 145.395 172.64 144.78 172.833C144.164 173.026 143.509 172.682 143.317 172.065C142.442 169.258 141.55 167.369 140.706 166.436L140.671 166.399L140.641 166.401C140.481 166.368 140.242 166.352 139.937 166.357C139.264 166.37 138.344 166.489 137.246 166.708C134.987 167.157 132.132 167.992 129.296 169.041C124.555 170.795 120.605 172.856 118.423 174.718C117.622 175.401 116.16 173.498 117.567 172.407C120.099 170.444 123.94 168.526 128.488 166.844Z" fill="black"/>
<path d="M125.285 144.724C125.285 148.629 129.403 152.858 130.279 153.099C130.9 153.269 120.187 160.271 120.187 160.271C116.316 160.782 114.042 157.5 114.042 152.611C114.042 151.964 125.285 144.077 125.285 144.724Z" fill="black"/>
<path fill-rule="evenodd" clip-rule="evenodd" d="M112.647 146.776C114.003 146.512 114.924 145.378 114.704 144.245C114.485 143.111 113.207 142.407 111.851 142.671C110.495 142.936 109.573 144.069 109.793 145.203C110.013 146.336 111.29 147.041 112.647 146.776Z" fill="black"/>
<path d="M250.836 15.9419C251.472 15.8309 252.076 16.2574 252.186 16.8945C252.296 17.5316 251.872 18.1379 251.238 18.249C248.217 18.7767 245.17 20.6107 242.029 23.5278C237.951 27.3156 235.258 32.5498 233.771 39.5283C232.575 45.1507 233.679 52.1763 236.807 58.3523C240.366 65.3789 246.66 67.1155 254 68.4601C261.537 69.8406 263.619 68.9881 270.74 66.449L271.395 66.2104C272.367 65.8406 276.918 64.055 278.013 63.7231C280.313 63.025 281.885 63.0833 283.022 64.3004C283.463 64.7719 283.441 65.513 282.969 65.9554C282.53 66.3702 281.853 66.3755 281.406 65.986L281.32 65.9029C280.985 65.5438 280.289 65.5023 278.892 65.9042L278.688 65.9648C277.635 66.2839 272.702 68.2262 272.062 68.4601C264.373 71.2759 261.763 72.2628 253.581 70.7639C245.475 69.2785 238.597 67.0549 234.726 59.4129C231.361 52.7712 230.177 45.2016 231.489 39.0394C233.073 31.5913 236.01 25.9273 240.443 21.8096C243.913 18.5863 247.371 16.5473 250.836 15.9419Z" fill="black"/>
<path d="M305.747 109.11C299.093 108.769 293.852 113.925 293.798 120.845C293.751 126.676 297.025 131.477 301.523 132.407C303.341 132.783 306.834 132.331 309.424 130.874C313.358 128.758 316.364 124.408 316.744 120.702C317.361 114.665 312.488 109.456 305.747 109.11Z" fill="black"/>
<path d="M185.155 107.891C187.282 112.197 190.582 122.144 189.155 122.096C185.189 121.963 179.884 115.85 176.171 107.584L175.879 106.919C172.64 99.4146 170.698 94.6997 172.952 93.7965C175.283 92.8624 180.769 99.0034 185.155 107.891Z" fill="black"/>
<path fill-rule="evenodd" clip-rule="evenodd" d="M172.95 93.7033C175.281 92.7691 180.848 98.6294 185.234 107.517C187.361 111.823 188.803 115.954 189.179 118.917C189.179 118.917 182 103.745 177.621 98.1876C175.939 96.0529 172.95 93.7033 172.95 93.7033Z" fill="black"/>
<path d="M171.734 131.913C171.905 131.29 172.546 130.923 173.169 131.095C173.79 131.266 174.155 131.911 173.985 132.534C173.764 133.336 170.672 135.44 163.925 139.612L159.667 142.226C151.26 147.359 145.65 150.644 144.949 150.644C140.307 150.644 136.124 146.252 133.071 139.322C130.404 133.271 129.02 126.068 129.645 121.348C129.84 119.874 134.734 116.061 142.29 110.951L143.372 110.224C150.056 105.757 155.769 102.445 157.838 102.026C158.468 101.898 159.086 102.308 159.213 102.942C159.291 103.339 140.867 118.917 139.067 129.256C137.848 136.257 142.456 148.189 144.742 148.297L144.949 148.302C144.763 148.302 144.823 148.259 144.844 148.246L145.055 148.138C145.21 148.056 145.394 147.956 145.606 147.84L146.577 147.295C146.949 147.083 147.363 146.845 147.816 146.583L148.975 145.908C151.187 144.613 153.947 142.964 156.761 141.255L159.439 139.623C162.694 137.627 165.636 135.788 167.847 134.359L168.986 133.617C169.692 133.153 170.287 132.751 170.763 132.418L170.936 132.297C171.199 132.111 171.418 131.951 171.588 131.82C171.588 131.82 171.779 131.743 171.734 131.913Z" fill="black"/>
<path fill-rule="evenodd" clip-rule="evenodd" d="M174.046 108.546C171.225 102.264 169.98 96.5069 170.924 93.0208C169.217 93.5647 167.082 94.5426 164.965 95.7613C162.15 97.3814 159.914 99.1923 159.862 99.5854C159.318 103.695 161.407 111.689 164.879 118.816C168.592 126.44 173.008 131.336 176.427 131.336C176.755 131.336 177.692 131.143 178.631 130.813C179.967 130.346 181.218 129.664 182.243 128.77C182.752 128.326 183.281 127.824 183.831 127.264L184.495 126.576C184.886 126.16 185.292 125.713 185.922 125.004L186.8 124.02L186.839 123.978C182.439 122.366 177.84 116.683 174.398 109.313L174.046 108.546ZM157.548 99.2771C157.911 96.5358 168.143 90.611 172.812 90.2275C173.008 90.1042 173.218 89.9975 173.44 89.908C177.484 88.2873 183.646 95.2302 188.59 104.999L188.928 105.677C191.158 110.197 192.681 114.558 193.096 117.82C193.592 121.718 192.465 124.302 189.516 124.434C189.437 124.742 189.237 124.999 188.971 125.154L188.926 125.177L188.81 125.292C188.694 125.412 188.56 125.559 188.348 125.794L186.899 127.418C186.371 128 185.999 128.394 185.494 128.908C184.903 129.509 184.332 130.052 183.775 130.538C181.513 132.507 178.173 133.678 176.427 133.678C175.5 133.678 174.563 133.461 173.624 133.048C172.623 134.096 169.54 136.136 163.919 139.612L159.66 142.226C151.253 147.359 145.643 150.644 144.941 150.644C143.352 150.644 141.817 150.129 140.362 149.173C140.349 149.182 140.335 149.191 140.322 149.2L139.728 149.584C137.66 150.928 134.353 153.164 131.286 155.239L131.285 155.24L131.089 155.372C131.486 158.215 132.389 161.066 133.801 163.926C138.817 162.37 142.79 161.844 143.936 163.014C145.133 164.236 146.2 166.448 147.212 169.693C147.404 170.311 147.061 170.967 146.446 171.16C145.83 171.353 145.175 171.009 144.983 170.392C144.109 167.586 143.216 165.697 142.372 164.763L142.337 164.727L142.307 164.728C142.147 164.695 141.908 164.679 141.603 164.685C140.93 164.698 140.01 164.817 138.912 165.035C136.653 165.484 133.798 166.319 130.962 167.368C124.48 169.767 119.478 172.738 118.449 174.991C118.148 175.65 118.187 176.614 118.547 178.091L118.614 178.357C118.668 178.567 118.724 178.774 118.798 179.037L119.22 180.533L119.247 180.637L119.276 180.75C119.438 181.376 119.064 182.015 118.44 182.177C117.815 182.34 117.178 181.964 117.016 181.338L116.809 180.581L116.464 179.359C116.424 179.214 116.389 179.081 116.354 178.945C115.807 176.83 115.719 175.347 116.327 174.016C117.357 171.758 120.582 169.419 125.073 167.292L124.096 164.762L123.855 164.123C123.485 163.125 123.055 161.772 122.791 160.785C119.283 162.681 116.84 162.999 114.392 161.661L114.201 161.554C113.717 161.273 113.251 160.949 112.78 160.554L99.0988 168.889C99.2258 169.164 99.3545 169.441 99.4843 169.721C100.098 171.041 99.0155 171.976 97.3549 172.704L97.1757 172.78C95.7483 173.373 94.4602 173.509 93.6935 172.665C90.5119 169.162 87.1438 160.784 88.9558 158.867C89.3037 158.499 90.2221 157.952 91.9591 157.038L92.0923 156.968C92.1288 156.943 92.1673 156.919 92.2075 156.897L104.997 149.947C105.027 149.931 105.057 149.916 105.087 149.903C104.297 148.593 103.431 147.134 102.474 145.507C102.328 145.271 102.275 144.995 102.312 144.73C102.335 144.561 102.395 144.397 102.491 144.25C102.544 144.169 102.608 144.093 102.681 144.027C105.31 141.525 108.893 138.917 113.388 136.109L113.932 135.771C115.878 134.568 119.823 132.311 123.174 130.393C125.774 128.906 128.017 127.623 128.692 127.195L128.856 127.086C129.099 126.907 129.389 126.837 129.667 126.866C129.445 124.836 129.426 122.949 129.638 121.348C129.833 119.874 134.726 116.061 142.282 110.951L143.365 110.224C149.703 105.989 155.167 102.791 157.479 102.114C157.417 101.066 157.438 100.112 157.548 99.2771ZM157.735 104.488C155.47 105.317 149.788 108.7 143.587 112.893L142.595 113.568C139.807 115.477 137.231 117.337 135.285 118.853L134.744 119.279C133.876 119.969 133.173 120.564 132.664 121.041C132.408 121.28 132.207 121.485 132.065 121.648L131.965 121.765C131.944 121.787 131.938 121.779 131.946 121.705L131.952 121.656C131.95 121.675 131.948 121.691 131.946 121.705L131.915 121.957C130.793 131.838 137.916 147.976 144.735 148.297L144.895 148.301C144.909 148.302 144.924 148.302 144.941 148.302L144.895 148.301C144.767 148.294 144.817 148.258 144.837 148.246L145.048 148.138C145.203 148.056 145.387 147.956 145.599 147.84L146.57 147.295C146.942 147.083 147.356 146.845 147.809 146.583L148.967 145.908C151.179 144.613 153.94 142.964 156.755 141.255L159.432 139.623C162.687 137.627 165.629 135.788 167.84 134.359L168.979 133.617C169.684 133.153 170.279 132.751 170.756 132.418L170.93 132.297C171.182 132.117 171.396 131.962 171.562 131.834C168.556 129.62 165.597 125.533 162.969 120.229L162.78 119.844C160.247 114.642 158.414 109.008 157.735 104.488ZM129.989 129.138C129.145 129.671 126.662 131.093 123.899 132.675C120.623 134.551 116.954 136.653 115.158 137.764C110.915 140.387 107.493 142.82 104.953 145.109L105.795 146.533C109.475 152.727 111.607 155.987 113.321 157.829C112.752 156.474 112.457 154.754 112.457 152.598C112.457 152.498 112.469 152.402 112.493 152.31C112.379 151.861 112.539 151.369 112.933 151.078L113.728 150.486C114.205 150.124 114.989 149.524 115.88 148.84L115.882 148.839C117.835 147.342 120.302 145.451 121.182 144.819C123.951 142.83 125.991 141.714 127.849 141.326C128.736 141.141 129.426 141.668 129.626 142.484L129.658 142.632C129.705 142.875 129.714 143.113 129.713 143.635L129.712 143.8C129.702 145.748 129.895 146.873 130.717 148.172C131.28 149.06 132.108 149.871 133.26 150.598C133.381 150.674 133.483 150.768 133.565 150.876C135.424 149.624 137.165 148.459 138.45 147.624C136.425 145.658 134.601 142.812 133.063 139.322C131.631 136.072 130.569 132.489 129.989 129.138ZM190.774 118.116C190.398 115.153 188.956 111.022 186.831 106.716C182.443 97.8283 176.633 91.1483 174.303 92.0825C172.049 92.9857 172.638 99.4145 175.878 106.919L176.169 107.584C179.88 115.85 185.187 121.963 189.153 122.096C190.58 122.144 191.139 120.974 190.774 118.116ZM106.293 151.882C108.318 155.166 109.798 157.336 111.087 158.845L98.1166 166.747C96.7881 163.826 95.5996 161.106 94.4464 158.344L106.109 152.006C106.175 151.97 106.237 151.928 106.293 151.882ZM131.562 164.665C130.304 162.055 129.434 159.437 128.956 156.813C127.283 157.943 125.826 158.921 124.889 159.532C125.05 160.339 125.647 162.257 126.161 163.621L127.119 166.095L127.21 166.336C128.151 165.937 129.135 165.548 130.154 165.171L130.828 164.925C131.074 164.836 131.319 164.75 131.562 164.665ZM131.524 152.253C130.328 151.422 129.411 150.476 128.747 149.427C127.672 147.73 127.389 146.281 127.377 144.092L127.377 143.896L127.212 143.958C126.028 144.418 124.615 145.252 122.841 146.509L122.541 146.723C121.697 147.33 119.292 149.173 117.353 150.659C116.274 151.486 115.339 152.203 114.896 152.535L114.792 152.613C114.794 156.508 115.764 158.295 117.566 159.162L117.711 159.229C118.14 159.42 118.447 159.515 119.323 159.756C119.341 159.761 119.359 159.766 119.376 159.772C120.285 159.465 121.327 158.953 122.572 158.221L123.035 157.942C124.063 157.3 126.821 155.434 129.856 153.381L131.524 152.253ZM92.3822 159.464L92.5611 159.892C93.8008 162.84 95.0893 165.76 96.5517 168.945L97.1201 170.181C96.9338 170.306 96.6888 170.44 96.4192 170.558C96.0322 170.727 95.6392 170.846 95.3439 170.886L95.2498 170.896L95.1076 170.725C94.0025 169.36 92.7199 167.041 91.7932 164.736C91.2996 163.508 90.9479 162.381 90.7893 161.516C90.7248 161.163 90.695 160.867 90.6974 160.642L90.7044 160.494C90.7066 160.458 90.7066 160.44 90.6978 160.437L90.7328 160.413C90.9302 160.277 91.4343 159.981 92.1832 159.573L92.3822 159.464ZM108.488 156.884C108.036 156.423 107.297 156.415 106.837 156.868C106.027 157.665 104.893 158.407 102.911 159.51L100.895 160.632C100.362 160.937 99.9257 161.199 99.5307 161.456C99.2005 161.671 98.9055 161.879 98.6405 162.084C98.1302 162.479 98.0363 163.215 98.4304 163.727C98.8247 164.238 99.5578 164.333 100.068 163.937C100.279 163.774 100.522 163.603 100.801 163.421C101.059 163.253 101.343 163.079 101.671 162.887L102.313 162.518L104.362 161.38C106.33 160.272 107.516 159.481 108.472 158.54C108.932 158.087 108.939 157.346 108.488 156.884Z" fill="black"/>
<path d="M82.3749 275.791C88.2126 308.436 110.092 332.979 138.012 338.763C143.137 339.827 152.011 339.966 161.199 338.772C173.04 337.236 184.562 333.71 194.697 327.996C222.534 312.99 243.658 282.363 246.397 255.55C248.8 232 239.831 210.244 223.593 194.722C223.593 194.722 172.582 219.854 147.542 234.137C125.752 246.567 82.3749 275.791 82.3749 275.791Z" fill="black"/>
<path d="M201.178 178.439C190.715 173.261 177.604 169.17 164.75 168.511C117.605 166.094 80.5257 203.871 80.139 252.595C80.139 252.595 132.758 218.978 160.096 202.758C173.695 194.689 201.178 178.439 201.178 178.439Z" fill="black"/>
<path fill-rule="evenodd" clip-rule="evenodd" d="M298.149 153.606C297.99 161.747 289.402 175.297 275.596 190.63C265.594 201.737 253.957 212.473 244.199 219.708L243.593 220.154L243.995 221.951C246.369 232.383 249.466 243.723 248.295 255.156C245.456 282.911 223.812 314.223 195.211 329.607C184.779 335.478 172.922 339.097 160.76 340.673L159.6 340.817C150.531 341.889 141.852 341.711 136.549 340.613C115.964 336.356 98.536 321.924 87.9992 301.035C87.9637 300.965 87.936 300.892 87.9158 300.819C86.5286 301.613 84.6624 302.5 83.81 302.791L81.4748 303.581C56.3088 312.07 31.36 319.176 21.1678 314.742C17.2879 313.054 15.9617 309.808 17.5844 305.448C19.1613 301.209 23.5336 295.75 30.8693 288.954L31.2724 288.582C38.2235 282.19 53.6601 270.511 77.582 253.545L77.5882 253.233C78.7552 202.961 117.688 164.635 166.626 167.764C181.594 168.721 193.515 174.056 199.469 177.332L202.087 175.923C226.644 162.752 246.348 153.494 261.382 147.953C286.106 138.84 298.334 143.101 298.149 153.606ZM262.184 153.353C234.539 163.543 190.847 186.46 130.016 223.325L128.167 224.447C80.7988 253.207 49.4327 275.059 32.8472 290.309L32.03 291.065L31.2548 291.795C18.8046 303.592 16.5977 310.202 22.0941 312.592C31.5027 316.686 56.7695 309.785 81.5133 301.646L83.8072 300.887C86.0138 300.153 87.4772 299.733 88.3831 299.538C88.4223 299.509 88.4655 299.485 88.511 299.461C88.8206 299.305 89.167 299.299 89.4661 299.417C89.531 299.429 89.5733 299.449 89.5954 299.478C89.797 299.586 89.9683 299.757 90.0796 299.977C100.308 320.256 117.163 332.613 137.018 336.718C142.171 337.786 150.867 337.941 159.914 336.817L160.457 336.75C172.34 335.21 183.913 333.277 194.085 327.555C222.035 312.521 243.211 281.884 245.97 254.918C247.151 243.393 245.645 232.079 241.644 221.55C241.313 221.783 240.985 222.01 240.66 222.231C240.046 222.651 240.274 221.972 241.348 220.19C241.404 219.957 241.533 219.747 241.717 219.587L242.046 219.062C242.162 218.88 242.283 218.689 242.412 218.49L243.795 217.321C256.836 206.257 266.857 196.837 273.86 189.06L274.659 188.167C287.616 173.625 295.67 160.778 295.803 153.563C295.949 145.647 285.538 144.746 262.184 153.353ZM144.961 301.431C148.094 311.033 143.355 317.209 135.014 317.528C127.307 317.823 120.289 312.952 120.646 306.029C120.955 300.048 125.039 293.652 130.067 291.303C136.148 288.462 141.855 291.909 144.961 301.431ZM131.303 293.958C127.28 295.838 123.819 301.256 123.564 306.181C123.311 311.087 128.718 314.84 134.906 314.603C141.377 314.356 144.698 310.027 142.191 302.342C139.581 294.341 135.613 291.945 131.303 293.958ZM208.646 281.866C212.643 289.44 211.597 296.881 205.451 300.217L205.279 300.307L205.191 300.397C196.949 308.581 186.654 309.575 179.94 303.643L179.71 303.434C171.977 296.329 173.82 284.121 186.124 274.552C194.044 268.393 203.717 272.524 208.646 281.866ZM187.66 276.535C176.487 285.222 174.918 295.628 181.401 301.584C186.051 305.858 192.924 306.093 199.342 301.947L199.467 301.862L199.42 301.853C198.975 301.735 198.62 301.376 198.517 300.907L198.498 300.789C198.416 300.1 198.906 299.476 199.592 299.395C201.162 299.207 202.523 298.828 203.677 298.284L203.836 298.207L204.027 298.008C204.779 297.213 205.516 296.348 206.229 295.414L206.465 295.098C206.732 294.74 207.155 294.564 207.57 294.598L207.602 294.601L207.619 294.571C209.117 291.599 208.762 287.575 206.567 283.292L206.436 283.038C202.151 274.914 194.14 271.496 187.66 276.535ZM262.053 186.497C261.412 188.788 259.455 191.932 256.455 195.655C251.226 202.145 243.374 209.698 236.507 214.863L238.032 213.184C238.017 213.171 238.004 213.152 237.992 213.131L237.467 212.163C234.031 205.874 230.204 199.67 224.018 194.612C208.008 201.233 189.65 210.283 172.924 219.747L167.441 222.856C127.07 245.794 105.83 259.528 83.116 276.41C83.9733 280.282 85.0535 284.061 86.3472 287.723C86.5503 288.297 83.8977 290.447 83.4121 290.183C78.8809 293.228 71.7856 295.438 67.746 295.554C63.8091 295.665 61.5347 294.067 62.7064 290.881C63.6866 288.215 67.379 284.412 74.0239 279.314L74.7815 278.738L76.3131 277.584C101.321 258.805 126.079 243.565 171.777 217.708L173.689 216.632C205.032 199.083 241.328 183.274 257.953 181.815C261.369 181.515 262.919 183.412 262.053 186.497ZM80.0706 278.682L74.8308 282.648C70.1566 286.202 66.7868 288.832 64.9664 290.519L64.8328 290.643C62.611 292.733 65.1259 293.286 67.6757 293.213C71.5379 293.104 77.4548 290.166 82.463 287.492C81.5373 284.616 80.7387 281.676 80.0706 278.682ZM162.028 265.967C162.653 266.126 163.031 266.764 162.872 267.391C162.713 268.018 162.079 268.397 161.454 268.237C158.313 267.438 156.46 267.746 155.857 268.594C155.459 269.156 155.679 270.115 156.426 270.727C157.009 271.205 157.786 271.434 158.321 271.318C158.785 271.216 159.045 270.856 159.045 269.958C159.045 269.31 159.568 268.787 160.212 268.787C160.857 268.787 161.381 269.31 161.381 269.958C161.381 271.913 160.404 273.26 158.816 273.605C157.541 273.884 156.054 273.447 154.948 272.539C153.315 271.201 152.783 268.888 153.955 267.235C155.242 265.423 158.059 264.957 162.028 265.967ZM110.751 261.669C112.552 262.211 113.327 263.597 113.572 265.678L113.596 265.903L113.626 266.245C113.63 266.301 113.634 266.361 113.638 266.423L113.699 267.612L113.717 267.879C113.727 267.997 113.737 268.093 113.749 268.179L113.781 268.357L113.8 268.436L113.832 268.466C114.192 268.819 114.288 269.374 114.055 269.832L113.995 269.937C113.646 270.479 112.924 270.637 112.382 270.286C111.636 269.804 111.467 269.306 111.376 267.882L111.302 266.488C111.294 266.363 111.284 266.254 111.272 266.13C111.14 264.766 110.808 264.13 110.081 263.912C108.042 263.299 106.872 263.926 106.502 265.293C106.171 266.511 106.649 267.791 107.486 268.147L107.698 268.226C108.245 268.46 108.534 269.078 108.35 269.657C108.154 270.273 107.497 270.614 106.883 270.417C104.66 269.706 103.604 267.057 104.249 264.678C104.969 262.023 107.472 260.684 110.751 261.669ZM194.972 243.74C198.204 248.299 197.604 254.098 192.417 256.723C191.841 257.014 191.139 256.783 190.849 256.205C190.558 255.627 190.789 254.924 191.366 254.633C195.12 252.732 195.55 248.595 193.07 245.098C190.66 241.7 187.307 241.327 185.002 244.997C182.559 248.89 182.737 251.173 184.495 252.201C185.892 253.019 188.141 252.847 188.758 252.179L188.818 252.106C189.192 251.58 189.922 251.456 190.447 251.832C190.971 252.207 191.094 252.937 190.72 253.464C189.422 255.293 185.72 255.629 183.32 254.226C180.247 252.428 179.953 248.646 183.027 243.749C186.317 238.507 191.685 239.105 194.972 243.74ZM146.575 237.027C147.182 237.027 147.681 237.49 147.737 238.085L147.743 238.197C147.743 238.404 147.934 238.633 148.619 239.137L149.267 239.605C149.974 240.12 150.314 240.441 150.636 240.952C151.372 242.12 151.79 243.308 151.79 244.706C151.79 248.284 146.43 253.151 140.58 255.318C133.566 257.914 127.821 255.987 126.257 248.77C126.12 248.137 126.52 247.515 127.15 247.378C127.78 247.241 128.402 247.64 128.539 248.273C129.752 253.875 133.941 255.278 139.771 253.121C144.805 251.258 149.455 247.034 149.455 244.706C149.455 243.805 149.181 243.027 148.663 242.203L148.593 242.105C148.474 241.955 148.288 241.792 147.953 241.543L147.183 240.985C145.904 240.04 145.408 239.4 145.408 238.197C145.408 237.55 145.931 237.027 146.575 237.027ZM152.049 172.127L151.312 172.21C111.477 177.015 81.5936 208.972 79.9638 251.856L84.238 248.841C96.5059 240.203 110.746 230.336 126.958 219.24L130.117 217.327C139.548 211.619 148.565 206.248 157.172 201.21C157.015 200.934 156.972 200.595 157.079 200.268C157.679 198.426 158.237 197.188 159.256 195.947C162.445 192.067 166.815 190.171 169.911 192.608C170.215 192.848 170.369 193.21 170.356 193.57L173.107 191.996C181.766 187.052 189.961 182.485 197.695 178.29L194.675 177.428C190.195 176.163 184.622 174.663 179.071 173.508C179.121 177.214 176.356 180.172 171.762 182.208C167.857 183.938 162.767 184.868 159.149 184.652C152.379 184.247 148.569 178.292 152.049 172.127ZM221.926 222.978C224.783 230.805 222.426 237.923 215.293 237.878C205.129 237.811 195.206 228.91 196.811 220.936C197.525 217.379 200.191 214.233 204.828 212.662C212.231 210.154 219.018 215.008 221.926 222.978ZM205.578 214.882C201.747 216.178 199.656 218.647 199.102 221.4C197.828 227.728 206.468 235.477 215.312 235.535C220.376 235.569 222.119 230.308 219.736 223.783C217.216 216.876 211.584 212.846 205.578 214.882ZM119.736 187.163L119.819 187.283L120.381 188.18C120.656 188.634 120.902 189.081 121.137 189.563C123.723 194.865 123.656 201.814 119.28 211.464C117.298 215.835 112.249 221.709 107.839 225.214C102.209 229.691 98.0047 230.706 92.9868 230.154L91.4981 229.978L91.3164 229.963C91.2169 229.955 91.1533 229.953 91.0834 229.957L90.9812 229.961C90.9036 229.965 90.8767 229.961 90.8722 229.95L90.8718 229.942L90.8344 230.002C90.496 230.49 89.8383 230.649 89.3101 230.355C88.7467 230.042 88.5439 229.329 88.8574 228.762C89.277 228.006 89.9783 227.664 90.8707 227.621C91.1071 227.61 91.3572 227.618 91.6548 227.644L92.0029 227.678L92.9659 227.794C97.5365 228.351 101.173 227.526 106.389 223.379C110.531 220.087 115.345 214.486 117.155 210.494C121.25 201.465 121.309 195.246 119.04 190.591C118.889 190.281 118.731 189.987 118.56 189.69L118.316 189.281L117.826 188.505C117.484 187.957 117.649 187.234 118.195 186.891C118.707 186.569 119.372 186.694 119.736 187.163ZM258.149 184.147C250.686 184.802 238.988 188.501 225.501 194L225.894 194.349C229.648 197.728 237.22 205.737 239.59 211.45L241.952 208.824C247.777 202.325 252.005 197.445 254.633 194.182L255.164 193.514C257.676 190.317 259.3 187.645 259.799 185.862L259.87 185.592C260.183 184.305 259.822 184.001 258.149 184.147ZM146.367 187.953C149.273 189.362 150.452 192.497 148.54 195.341C148.18 195.878 147.454 196.019 146.92 195.659C146.385 195.296 146.244 194.568 146.604 194.032C147.656 192.469 147.063 190.891 145.351 190.06C143.548 189.186 141.573 189.688 140.554 191.597C139.615 193.356 139.55 195.737 140.3 197.296C140.958 198.664 141.916 198.927 143.379 197.824C143.894 197.433 144.626 197.537 145.013 198.054C145.401 198.57 145.298 199.304 144.783 199.694C142.119 201.705 139.481 200.983 138.197 198.313C137.121 196.075 137.206 192.906 138.496 190.491C140.141 187.413 143.494 186.559 146.367 187.953ZM161.063 197.437C160.519 198.099 160.13 198.797 159.768 199.696C162.776 197.942 165.734 196.229 168.64 194.557L168.556 194.508L168.474 194.45C166.691 193.047 163.549 194.411 161.063 197.437ZM156.082 171.769L155.062 171.841L154.993 171.927C150.958 177.043 152.512 181.195 158.023 181.784C161.981 182.208 172.488 179.262 173.721 178.229C174.922 177.222 176.439 174.906 176.673 173.03C173.107 172.358 169.619 171.863 166.508 171.704C163.328 171.541 160.191 171.545 157.109 171.708L156.082 171.769Z" fill="white"/>
<path d="M261.479 153.643C286.204 144.531 285.637 147.234 262.285 155.841C234.639 166.031 130.282 229.88 130.282 229.88C82.9136 258.642 79.3701 254.201 125.283 226.214L128.113 224.494C128.646 224.169 180.917 191.079 218.27 173.375C222.473 171.383 258.664 154.681 261.479 153.643Z" fill="black"/>
<path fill-rule="evenodd" clip-rule="evenodd" d="M304.161 108.276C296.501 107.883 290.521 113.855 290.457 121.668C290.407 128.214 294.15 133.772 299.514 134.882C300.928 135.174 305.004 135.174 308.542 133.184L308.833 133.022C313.293 130.49 316.325 125.673 316.731 121.71C317.449 114.683 311.822 108.669 304.161 108.276ZM292.124 121.681C292.124 121.631 292.126 121.581 292.126 121.531C292.176 121.516 292.225 121.495 292.272 121.47C298.278 118.224 301.985 115.751 303.467 113.965C304.443 112.786 304.92 111.457 304.883 110.012C305.887 110.124 306.847 110.346 307.745 110.663C307.741 110.706 307.737 110.751 307.739 110.797C307.812 112.876 307.26 114.539 306.086 115.833C304.735 117.32 303.098 118.736 301.239 120.071C299.251 121.498 297.116 122.758 294.98 123.837C294.483 124.089 294.007 124.318 293.564 124.525L292.919 124.818C292.827 124.86 292.741 124.897 292.663 124.932L292.474 125.011C292.236 123.957 292.115 122.839 292.124 121.681ZM292.941 126.628C293.469 128.097 294.234 129.399 295.182 130.46L295.68 130.172C303.517 125.621 308.384 122.045 310.225 119.522C312.088 116.972 312.752 115.013 312.335 113.682C312.326 113.65 312.318 113.619 312.311 113.587C311.49 112.722 310.513 111.979 309.411 111.393C309.365 113.605 308.669 115.472 307.318 116.959C305.884 118.541 304.159 120.032 302.21 121.431C300.145 122.913 297.937 124.216 295.73 125.331C295.087 125.656 294.481 125.946 293.923 126.2L293.272 126.489L292.941 126.628ZM299.185 133.075C298.199 132.78 297.283 132.295 296.456 131.654C304.526 126.973 309.546 123.284 311.572 120.511C312.827 118.79 313.631 117.242 313.957 115.861C314.363 116.622 314.671 117.433 314.868 118.28C314.827 118.366 314.798 118.461 314.787 118.561C314.585 120.517 313.579 122.457 311.742 124.39C309.98 126.245 306.173 128.922 300.36 132.382L299.185 133.075ZM302.004 133.346C303.794 133.231 305.983 132.705 307.75 131.71C311.041 129.941 313.682 126.609 314.681 123.398C314.198 124.123 313.62 124.838 312.949 125.545C311.138 127.449 307.5 130.039 302.004 133.346ZM292.614 119.378L292.311 119.543C293.257 114.013 297.663 110.046 303.211 109.933C303.269 111.019 302.932 111.993 302.184 112.896C300.975 114.355 297.765 116.539 292.614 119.378Z" fill="black"/>
<path fill-rule="evenodd" clip-rule="evenodd" d="M364.364 92.2498C364.519 92.2678 364.628 92.4089 364.611 92.5639C364.609 92.792 364.463 92.9155 364.267 92.9958C364.089 93.0671 363.805 93.0397 363.64 93.0622C361.833 93.202 360.415 91.8691 359.79 90.1515C359.19 88.5012 359.351 86.5282 360.44 85.3111C360.565 85.1678 360.782 85.1533 360.924 85.279C361.068 85.4047 361.88 85.6233 361.755 85.7666C360.857 86.8179 360.249 87.4558 361.096 89.9509C361.943 92.4461 364.248 92.2365 364.364 92.2498Z" fill="black"/>
<path fill-rule="evenodd" clip-rule="evenodd" d="M76.8467 110.115C76.3721 109.788 75.7233 109.909 75.3974 110.385C75.0716 110.86 75.1922 111.511 75.6668 111.838C76.1873 112.197 76.6475 112.528 77.0536 112.835C76.6151 113.185 76.1772 113.586 75.7221 114.042L74.8003 114.981C74.395 115.391 74.398 116.053 74.8067 116.46C75.2156 116.866 75.8755 116.863 76.2809 116.453L77.3867 115.332C77.8375 114.892 78.2599 114.524 78.6849 114.218C79.6286 115.155 79.9157 115.843 79.931 116.527L79.9312 116.702L79.9364 116.809C79.9899 117.336 80.4338 117.747 80.9735 117.747C81.549 117.747 82.0157 117.279 82.0157 116.702L82.0155 116.496C81.9961 115.431 81.6212 114.418 80.6119 113.26C81.2776 113.061 82.0275 112.95 82.937 112.902C83.5118 112.872 83.9534 112.38 83.9235 111.804C83.8934 111.227 83.4031 110.784 82.8281 110.814C81.2484 110.897 80.0206 111.161 78.9265 111.663C78.4701 111.288 77.9527 110.895 77.3684 110.48L76.8467 110.115Z" fill="black"/>
<path fill-rule="evenodd" clip-rule="evenodd" d="M233.022 339.195L233.744 339.198C237.787 339.236 240.944 339.602 246.891 340.559C247.573 340.669 248.037 341.313 247.927 341.996C247.818 342.681 247.177 343.146 246.494 343.037L244.545 342.729C239.624 341.971 236.788 341.705 233.022 341.705C219.949 341.705 211.607 349.911 213.017 362.499C213.096 363.187 212.602 363.808 211.915 363.885C211.229 363.964 210.61 363.469 210.533 362.78C208.945 348.622 218.529 339.195 233.022 339.195ZM243.144 344.26L243.022 344.153C242.904 344.052 242.723 344.065 242.624 344.185C242.521 344.303 242.536 344.482 242.654 344.585L242.781 344.692C242.897 344.793 243.075 344.778 243.178 344.66C243.277 344.542 243.265 344.362 243.144 344.26ZM220.475 346.883C220.026 346.523 219.371 346.594 219.01 347.045C217.555 348.861 216.492 350.632 215.83 352.36C215.187 354.041 214.968 356.866 215.134 360.906L215.176 361.758C215.206 362.336 215.696 362.778 216.27 362.746C216.846 362.716 217.287 362.225 217.256 361.649C217.035 357.429 217.224 354.555 217.778 353.11C218.356 351.598 219.308 350.011 220.636 348.354C220.995 347.904 220.924 347.245 220.475 346.883ZM231.855 343.425C232.366 343.161 232.994 343.36 233.26 343.874C233.524 344.386 233.325 345.016 232.813 345.283C230.697 346.382 229.079 348.227 227.953 350.855C226.743 353.677 225.753 356.195 224.985 358.407C224.794 358.953 224.201 359.24 223.657 359.05C223.114 358.859 222.826 358.264 223.017 357.718C223.803 355.456 224.811 352.893 226.038 350.03C227.347 346.973 229.291 344.757 231.855 343.425ZM237.914 343.371C237.534 342.936 236.876 342.893 236.444 343.273C234.704 344.803 233.367 346.193 232.431 347.454C231.502 348.705 230.415 350.579 229.156 353.084C228.896 353.6 229.104 354.228 229.618 354.487C230.131 354.748 230.757 354.54 231.017 354.024C232.227 351.619 233.26 349.84 234.104 348.701C234.942 347.574 236.18 346.285 237.817 344.846C238.251 344.465 238.294 343.804 237.914 343.371ZM234.111 355.178C233.677 355.557 233.019 355.514 232.639 355.08C232.259 354.645 232.304 353.985 232.736 353.604C234.375 352.165 235.613 350.878 236.449 349.748C237.293 348.611 238.327 346.833 239.536 344.425C239.796 343.909 240.422 343.703 240.937 343.962C241.449 344.223 241.657 344.851 241.397 345.367C240.138 347.872 239.051 349.744 238.121 350.996C237.186 352.258 235.851 353.649 234.111 355.178ZM226.221 344.277C225.748 343.951 225.099 344.069 224.771 344.544C222.441 347.928 220.954 350.457 220.295 352.176C219.635 353.9 219.179 356.223 218.913 359.161C218.862 359.735 219.285 360.244 219.858 360.296C220.432 360.349 220.939 359.925 220.989 359.349C221.238 356.589 221.661 354.442 222.241 352.926C222.783 351.512 224.046 349.33 226.019 346.418L226.487 345.733C226.814 345.257 226.694 344.606 226.221 344.277Z" fill="black"/>
<path fill-rule="evenodd" clip-rule="evenodd" d="M206.433 338.112L207.151 339.712L208.788 340.185C208.876 340.21 208.928 340.303 208.902 340.392C208.894 340.418 208.879 340.444 208.859 340.463L207.615 341.705L207.684 343.493C207.688 343.585 207.617 343.664 207.525 343.667C207.493 343.667 207.463 343.66 207.435 343.645L206.027 342.84C205.984 342.816 205.93 342.812 205.883 342.831L204.377 343.431C204.291 343.465 204.194 343.423 204.16 343.337C204.149 343.307 204.145 343.277 204.151 343.245L204.469 341.485L203.41 340.082C203.354 340.007 203.369 339.904 203.442 339.847C203.464 339.831 203.49 339.819 203.518 339.816L205.206 339.577L206.139 338.091C206.188 338.013 206.291 337.99 206.369 338.039C206.397 338.058 206.418 338.082 206.433 338.112Z" fill="black"/>
<path fill-rule="evenodd" clip-rule="evenodd" d="M264.432 113.982C264.816 114.323 265.295 114.938 265.718 115.604L266.26 115.362L266.903 115.086C267.033 115.026 267.117 114.98 267.143 114.942C267.216 114.804 267.388 114.751 267.526 114.825C267.663 114.898 267.717 115.07 267.644 115.208C267.592 115.339 267.231 115.751 266.561 116.154C266.44 116.227 266.305 116.295 266.161 116.361C266.408 116.825 266.602 117.274 266.694 117.634C266.831 118.164 266.722 118.54 266.541 118.672C266.363 118.802 265.916 118.827 265.237 118.261C265.111 118.165 265.091 117.987 265.186 117.863C265.282 117.74 265.458 117.717 265.583 117.812C265.712 117.908 265.843 117.962 265.949 118.001L265.897 117.798C265.877 117.726 265.852 117.65 265.819 117.576C265.695 117.309 265.542 117.004 265.368 116.691C264.837 116.892 264.232 117.075 263.579 117.163C263.262 117.206 262.936 117.214 262.599 117.211C262.407 117.224 262.238 117.077 262.225 116.882C262.212 116.687 262.36 116.519 262.553 116.506C263.338 116.43 264.064 116.231 264.706 116.007L264.915 115.932C264.569 115.388 264.197 114.894 263.879 114.615C263.707 114.462 263.69 114.196 263.84 114.021C263.995 113.846 264.259 113.828 264.432 113.982Z" fill="black"/>
<path fill-rule="evenodd" clip-rule="evenodd" d="M34.9376 255.515C33.8474 255.586 32.1187 255.866 30.7055 256.426C29.4967 256.909 29.4967 269.997 33.6293 271.04C37.7379 272.415 42.2306 270.595 41.6941 263.592C41.6846 263.445 41.5664 263.046 41.4307 262.59C41.2323 261.922 40.9968 261.128 41.0108 260.817C41.0667 259.717 40.7785 258.79 40.0181 258.207C39.1988 256.466 37.5933 255.344 34.9376 255.515ZM34.3407 267.854C32.3183 266.338 32.3893 259.265 34.6974 258.792C36.134 259.899 37.4452 261.5 37.8876 264.58C37.3926 266.276 36.3476 267.26 35.434 268.117C35.3364 268.209 35.24 268.299 35.1461 268.389C34.8854 268.241 34.6166 268.059 34.3407 267.854Z" fill="black"/>
<path fill-rule="evenodd" clip-rule="evenodd" d="M31.8835 263.73C31.7002 262.629 31.8252 261.398 32.3768 260.083C32.6271 259.488 33.2847 259.002 34.1074 258.676C35.0692 258.295 36.2458 258.107 36.9876 258.059C38.7951 257.941 39.8873 258.7 40.4444 259.879C40.9618 260.271 41.1576 260.899 41.1193 261.642C41.1028 261.995 41.5675 263.275 41.5835 263.518C41.9466 268.256 38.8889 269.488 36.0931 268.56C35.0309 269.102 34.0064 269.19 33.2353 268.616C32.5436 268.102 32.0128 267.019 31.891 265.111C31.8586 264.618 31.8562 264.158 31.8835 263.73ZM36.8372 260.61C35.2331 260.927 35.1661 265.571 36.5668 266.562C36.7579 266.695 36.9441 266.813 37.1248 266.911C37.8019 266.299 38.3067 265.804 38.5933 264.791C38.8797 263.777 37.832 261.335 36.8372 260.61Z" fill="black"/>
<path fill-rule="evenodd" clip-rule="evenodd" d="M141.358 379.732C140.884 379.405 140.235 379.525 139.909 380.002C139.583 380.478 139.704 381.129 140.178 381.456C140.699 381.814 141.159 382.144 141.565 382.452C141.127 382.803 140.689 383.202 140.234 383.66L139.312 384.598C138.907 385.009 138.91 385.67 139.318 386.077C139.727 386.484 140.387 386.48 140.792 386.071L141.898 384.949C142.349 384.508 142.772 384.141 143.196 383.835C144.14 384.773 144.427 385.46 144.443 386.144V386.319L144.448 386.426C144.502 386.953 144.945 387.364 145.485 387.364C146.061 387.364 146.527 386.897 146.527 386.319L146.527 386.112C146.508 385.049 146.133 384.036 145.124 382.878C145.789 382.679 146.539 382.566 147.449 382.52C148.023 382.49 148.465 381.998 148.435 381.42C148.405 380.844 147.915 380.401 147.34 380.431C145.76 380.514 144.532 380.778 143.438 381.279C142.982 380.906 142.464 380.512 141.88 380.097L141.358 379.732Z" fill="black"/>
<path fill-rule="evenodd" clip-rule="evenodd" d="M141.358 379.732C140.884 379.405 140.235 379.525 139.909 380.002C139.583 380.478 139.704 381.129 140.178 381.456C140.699 381.814 141.159 382.144 141.565 382.452C141.127 382.803 140.689 383.202 140.234 383.66L139.312 384.598C138.907 385.009 138.91 385.67 139.318 386.077C139.727 386.484 140.387 386.48 140.792 386.071L141.898 384.949C142.349 384.508 142.772 384.141 143.196 383.835C144.14 384.773 144.427 385.46 144.443 386.144V386.319L144.448 386.426C144.502 386.953 144.945 387.364 145.485 387.364C146.061 387.364 146.527 386.897 146.527 386.319L146.527 386.112C146.508 385.049 146.133 384.036 145.124 382.878C145.789 382.679 146.539 382.566 147.449 382.52C148.023 382.49 148.465 381.998 148.435 381.42C148.405 380.844 147.915 380.401 147.34 380.431C145.76 380.514 144.532 380.778 143.438 381.279C142.982 380.906 142.464 380.512 141.88 380.097L141.358 379.732Z" fill="black"/>
<path fill-rule="evenodd" clip-rule="evenodd" d="M176.972 351.091L177.69 352.692L179.327 353.163C179.415 353.189 179.467 353.281 179.441 353.369C179.433 353.397 179.418 353.422 179.398 353.442L178.154 354.684L178.223 356.472C178.227 356.564 178.156 356.641 178.064 356.645C178.032 356.647 178.002 356.639 177.974 356.624L176.566 355.819C176.523 355.795 176.469 355.791 176.422 355.81L174.916 356.409C174.83 356.444 174.733 356.401 174.699 356.315C174.688 356.287 174.684 356.255 174.69 356.225L175.008 354.463L173.949 353.06C173.893 352.986 173.908 352.881 173.981 352.825C174.003 352.808 174.029 352.797 174.058 352.793L175.745 352.555L176.678 351.071C176.727 350.992 176.83 350.968 176.908 351.018C176.936 351.035 176.957 351.061 176.972 351.091Z" fill="black"/>
<path fill-rule="evenodd" clip-rule="evenodd" d="M86.6109 340.091L87.8318 341.348L89.531 341.23C89.6228 341.223 89.7025 341.292 89.7091 341.386C89.7109 341.414 89.7057 341.442 89.6935 341.469L88.9481 343.061L89.6232 344.718C89.658 344.803 89.6172 344.9 89.5319 344.936C89.5031 344.947 89.4715 344.951 89.4408 344.945L87.8432 344.673C87.7933 344.664 87.7422 344.679 87.7044 344.712L86.4936 345.793C86.4248 345.855 86.3193 345.849 86.2581 345.78C86.2374 345.756 86.2237 345.727 86.2183 345.697L85.916 343.934L84.4416 342.979C84.3644 342.928 84.3421 342.825 84.3923 342.746C84.4076 342.724 84.4289 342.703 84.454 342.69L85.9577 341.887L86.3284 340.172C86.3479 340.082 86.4368 340.024 86.5267 340.045C86.5587 340.05 86.5881 340.067 86.6109 340.091Z" fill="black"/>
<path fill-rule="evenodd" clip-rule="evenodd" d="M67.552 225.445L68.2703 227.047L69.9076 227.518C69.9962 227.543 70.0473 227.636 70.0219 227.725C70.014 227.753 69.9994 227.777 69.9792 227.798L68.7353 229.04L68.8051 230.826C68.8086 230.92 68.737 230.997 68.645 231C68.6137 231.002 68.5829 230.995 68.5559 230.978L67.1476 230.175C67.1035 230.149 67.0505 230.145 67.0034 230.164L65.4972 230.764C65.4116 230.798 65.3147 230.756 65.2806 230.67C65.2692 230.642 65.266 230.61 65.2715 230.578L65.5885 228.818L64.529 227.415C64.4735 227.342 64.4879 227.237 64.5614 227.18C64.584 227.164 64.6106 227.152 64.6388 227.149L66.3255 226.91L67.2589 225.424C67.3081 225.347 67.411 225.323 67.489 225.372C67.5167 225.391 67.5387 225.415 67.552 225.445Z" fill="black"/>
<path fill-rule="evenodd" clip-rule="evenodd" d="M67.3792 227.04L67.6843 227.721L68.3797 227.921C68.4175 227.931 68.4392 227.97 68.4284 228.008C68.425 228.021 68.4188 228.03 68.4102 228.04L67.8818 228.567L67.9115 229.327C67.913 229.366 67.8825 229.398 67.8435 229.4C67.8302 229.4 67.8171 229.398 67.8057 229.391L67.2075 229.049C67.1888 229.038 67.1661 229.036 67.1463 229.045L66.5064 229.3C66.4701 229.314 66.429 229.297 66.4144 229.259C66.4095 229.248 66.4082 229.235 66.4106 229.222L66.5453 228.473L66.0953 227.876C66.0717 227.846 66.0777 227.801 66.1089 227.777C66.1186 227.77 66.1299 227.766 66.1418 227.764L66.8582 227.663L67.2548 227.032C67.2756 226.998 67.3193 226.989 67.3524 227.01C67.3642 227.017 67.3736 227.028 67.3792 227.04Z" fill="black"/>
<path fill-rule="evenodd" clip-rule="evenodd" d="M54.3303 151.932L54.852 152.297C55.4375 152.714 57.6234 154.78 58.0804 155.155C59.1733 154.652 60.4019 154.388 61.9829 154.305C62.5579 154.275 63.0481 154.718 63.0783 155.294C63.1082 155.871 62.6666 156.363 62.0917 156.393C61.1808 156.44 60.4298 156.552 59.7633 156.751C60.773 157.909 61.1475 158.922 61.1669 159.986L61.1671 160.192C61.1671 160.769 60.7004 161.238 60.1249 161.238C59.585 161.238 59.1413 160.826 59.0878 160.299L59.0824 160.192V160.017C59.0671 159.334 58.7801 158.647 57.8378 157.71C57.4133 158.015 56.9915 158.383 56.5415 158.823L55.4356 159.944C55.0303 160.354 54.3704 160.357 53.9615 159.95C53.5527 159.544 53.5498 158.882 53.9551 158.472L54.8769 157.533C55.3312 157.077 55.7686 156.677 56.2065 156.327C55.4375 154.566 52.5554 152.678 52.8812 152.202C53.2069 151.726 53.8558 151.605 54.3303 151.932Z" fill="black"/>
<path fill-rule="evenodd" clip-rule="evenodd" d="M255.435 272.502L256.855 273.528L258.508 273.115C258.598 273.093 258.688 273.147 258.71 273.237C258.718 273.265 258.716 273.293 258.71 273.322L258.252 275.021L259.202 276.534C259.253 276.612 259.229 276.716 259.15 276.764C259.124 276.781 259.094 276.791 259.062 276.791L257.442 276.8C257.392 276.8 257.343 276.824 257.313 276.864L256.307 278.14C256.251 278.211 256.146 278.224 256.073 278.166C256.049 278.147 256.03 278.121 256.019 278.091L255.416 276.408L253.798 275.723C253.714 275.687 253.675 275.59 253.711 275.504C253.722 275.477 253.739 275.455 253.761 275.438L255.104 274.385L255.171 272.631C255.175 272.539 255.252 272.468 255.343 272.47C255.377 272.472 255.409 272.483 255.435 272.502Z" fill="black"/>
<path fill-rule="evenodd" clip-rule="evenodd" d="M271.742 206.979L272.173 208.681L273.703 209.43C273.785 209.471 273.821 209.57 273.78 209.655C273.766 209.679 273.748 209.702 273.725 209.719L272.285 210.724L272.044 212.497C272.032 212.589 271.948 212.653 271.857 212.64C271.825 212.636 271.797 212.623 271.772 212.604L270.525 211.567C270.485 211.533 270.435 211.52 270.384 211.531L268.798 211.859C268.707 211.878 268.619 211.82 268.6 211.73C268.594 211.698 268.596 211.666 268.607 211.638L269.225 209.959L268.424 208.392C268.381 208.31 268.415 208.208 268.497 208.167C268.521 208.154 268.549 208.148 268.578 208.148L270.28 208.208L271.456 206.908C271.518 206.841 271.625 206.835 271.692 206.897C271.716 206.919 271.733 206.948 271.742 206.979Z" fill="black"/>
<path fill-rule="evenodd" clip-rule="evenodd" d="M234.594 138.493L235.024 140.195L236.556 140.944C236.638 140.985 236.672 141.085 236.633 141.168C236.619 141.193 236.601 141.215 236.578 141.232L235.138 142.238L234.897 144.011C234.884 144.102 234.799 144.166 234.71 144.154C234.678 144.15 234.65 144.137 234.625 144.117L233.378 143.079C233.339 143.047 233.286 143.034 233.238 143.044L231.649 143.373C231.56 143.392 231.472 143.333 231.453 143.243C231.447 143.212 231.449 143.181 231.461 143.151L232.076 141.473L231.277 139.906C231.234 139.824 231.266 139.723 231.348 139.681C231.374 139.668 231.403 139.661 231.431 139.663L233.133 139.722L234.309 138.422C234.371 138.353 234.476 138.348 234.545 138.41C234.569 138.432 234.586 138.461 234.594 138.493Z" fill="black"/>
<path fill-rule="evenodd" clip-rule="evenodd" d="M344.344 155.167L344.978 155.11C345.694 155.052 346.343 155.019 346.932 155.012C347.449 153.922 348.219 152.927 349.377 151.844C349.798 151.45 350.458 151.474 350.851 151.896C351.244 152.318 351.22 152.98 350.799 153.373C350.131 153.997 349.628 154.567 349.244 155.149C350.761 155.385 351.697 155.92 352.394 156.723L352.525 156.88C352.896 157.322 352.838 157.982 352.396 158.353C351.983 158.701 351.381 158.672 351.001 158.302L350.928 158.224L350.816 158.09C350.367 157.577 349.706 157.235 348.384 157.125C348.255 157.633 348.167 158.186 348.105 158.813L347.976 160.385C347.928 160.96 347.424 161.388 346.85 161.341C346.278 161.293 345.851 160.787 345.898 160.212L346.003 158.898C346.059 158.256 346.137 157.668 346.248 157.117C345.741 157.143 345.174 157.187 344.546 157.248C343.971 157.303 343.463 156.883 343.406 156.308C343.352 155.733 343.771 155.222 344.344 155.167Z" fill="black"/>
<path fill-rule="evenodd" clip-rule="evenodd" d="M260.17 227.332C259.981 227.811 259.569 228.473 259.09 229.098L259.502 229.529L259.981 230.04L260.087 230.143C260.134 230.184 260.171 230.209 260.198 230.216C260.353 230.239 260.459 230.381 260.439 230.539C260.416 230.691 260.274 230.801 260.121 230.779C259.979 230.775 259.47 230.576 258.864 230.081C258.754 229.993 258.643 229.89 258.533 229.775C258.181 230.167 257.828 230.503 257.523 230.713C257.072 231.025 256.683 231.049 256.498 230.923C256.314 230.8 256.138 230.389 256.436 229.554C256.483 229.404 256.644 229.325 256.791 229.372C256.941 229.419 257.021 229.578 256.975 229.728C256.93 229.882 256.924 230.025 256.924 230.137L257.096 230.019C257.156 229.976 257.22 229.925 257.276 229.869C257.485 229.663 257.717 229.411 257.951 229.141C257.583 228.709 257.205 228.201 256.898 227.616C256.75 227.33 256.63 227.028 256.518 226.709C256.44 226.531 256.52 226.323 256.698 226.244C256.875 226.165 257.085 226.248 257.162 226.424C257.502 227.139 257.938 227.756 258.366 228.284L258.508 228.456C258.899 227.942 259.236 227.424 259.388 227.028C259.472 226.813 259.715 226.706 259.93 226.788C260.147 226.875 260.256 227.117 260.17 227.332Z" fill="black"/>
<path fill-rule="evenodd" clip-rule="evenodd" d="M250.003 14.27C250.637 14.159 251.241 14.5855 251.354 15.2226C251.464 15.8597 251.038 16.4661 250.403 16.577C247.383 17.1048 243.746 18.916 240.606 21.8331C236.528 25.6211 233.518 30.9673 232.033 37.9458C230.836 43.5682 231.936 50.9709 235.065 57.1469C238.623 64.1734 244.343 68.9508 251.683 70.2956C259.219 71.6761 265.594 70.8187 272.713 68.2797L273.37 68.041C273.578 67.9618 273.95 67.8181 274.416 67.6376C276.131 66.9742 279.126 65.8147 279.986 65.5537C282.289 64.8556 283.858 64.914 284.997 66.131C285.439 66.6025 285.414 67.3436 284.945 67.786C284.503 68.2009 283.828 68.2061 283.381 67.8166L283.295 67.7335C282.958 67.3744 282.264 67.3329 280.867 67.7348L280.661 67.7954C279.904 68.0254 277.13 69.0986 275.399 69.7677C274.728 70.027 274.215 70.2254 274.038 70.2907C266.346 73.1065 259.446 74.0981 251.264 72.5992C243.157 71.114 236.853 65.8496 232.983 58.2075C229.62 51.566 228.438 43.619 229.751 37.4568C231.335 30.0087 234.586 24.2325 239.019 20.1148C242.489 16.8916 246.537 14.8755 250.003 14.27ZM257.897 19.9267C258.531 19.8023 259.144 20.216 259.268 20.8507C259.391 21.4852 258.978 22.1004 258.346 22.2248C248.885 24.0834 241.275 31.3318 239.07 40.9195C238.322 44.1644 238.548 46.8027 239.281 47.8095L239.379 47.9356L239.386 47.9532L239.399 47.9425C239.663 47.705 239.97 47.0982 240.207 46.1573L240.256 45.9506C242.527 36.0899 250.022 28.4569 259.595 25.8937C260.218 25.7269 260.858 26.0982 261.024 26.723C261.191 27.3477 260.82 27.9894 260.198 28.1562C251.573 30.4656 244.796 37.2767 242.62 46.1033L242.532 46.4774C241.732 49.9551 239.433 51.6153 237.572 49.4138C236.21 47.8037 235.875 44.3871 236.793 40.3927C239.21 29.8969 247.54 21.9612 257.897 19.9267ZM271.933 32.778C271.888 32.133 271.329 31.6474 270.688 31.6934C259.326 32.5065 249.362 39.9083 245.396 50.833C243.892 54.9786 243.802 58.6651 245.035 60.5451C246.687 63.0669 249.285 61.6364 250.581 58.0657L250.716 57.6994C254.223 48.4538 262.438 41.9965 272.055 40.6499C272.695 40.5606 273.14 39.9689 273.05 39.3285C272.96 38.688 272.371 38.2413 271.733 38.3306C261.14 39.8135 252.111 47.0012 248.387 57.2647L248.305 57.4841C247.891 58.5524 247.437 59.1965 247.094 59.3854L247.078 59.3957L247.072 59.401L247.068 59.4036L247.066 59.4047C247.066 59.4047 247.063 59.4011 247.061 59.3935C247.053 59.3762 247.036 59.3366 246.986 59.2591L246.924 59.1572C246.245 57.9524 246.35 55.0538 247.59 51.6339C251.238 41.585 260.401 34.7771 270.852 34.0292C271.496 33.9833 271.98 33.423 271.933 32.778ZM277.017 44.161C277.661 44.1151 278.22 44.6006 278.265 45.2457C278.312 45.8907 277.827 46.4509 277.184 46.4969C269.857 47.0213 263.432 51.7945 260.875 58.84C260.117 60.9284 259.975 62.7141 260.248 63.6184L260.28 63.7194L260.332 63.6447C260.463 63.4464 260.609 63.1616 260.753 62.7922L260.815 62.6288C263.516 55.1868 270.063 49.975 277.741 48.8997C278.381 48.8104 278.97 49.2571 279.06 49.8977C279.148 50.538 278.703 51.1298 278.065 51.2191C271.346 52.1596 265.605 56.6568 263.131 63.1004L263.009 63.4297C262.006 66.1894 259.842 67.3815 258.456 65.2684C257.508 63.8203 257.575 61.0867 258.681 58.039C261.556 50.1176 268.78 44.7505 277.017 44.161ZM283.17 53.5951C283.123 52.9501 282.565 52.4645 281.922 52.5105C276.404 52.9052 271.567 56.4998 269.64 61.8047C268.882 63.8961 268.836 65.7997 269.537 66.8714C270.689 68.6286 272.478 67.644 273.222 65.5907L273.323 65.3211C274.892 61.3038 278.486 58.503 282.687 57.9146C283.327 57.8253 283.772 57.2336 283.682 56.5932C283.594 55.9527 283.003 55.506 282.365 55.5953L282.07 55.6399C277.547 56.3707 273.643 59.2503 271.621 63.3946L271.55 63.5423L271.593 63.3742C271.658 63.1295 271.739 62.8723 271.834 62.6057C273.441 58.1766 277.481 55.176 282.088 54.8463C282.73 54.8004 283.215 54.2401 283.17 53.5951Z" fill="black"/>
<path fill-rule="evenodd" clip-rule="evenodd" d="M277.017 44.1601C277.661 44.1141 278.22 44.5996 278.265 45.2447C278.312 45.8897 277.827 46.4499 277.184 46.4959C269.857 47.0203 263.432 51.7935 260.875 58.839C260.117 60.9276 259.975 62.7131 260.248 63.6175L260.28 63.7184L260.332 63.6437C260.463 63.4454 260.609 63.1606 260.753 62.7912L260.815 62.6278C263.516 55.1859 270.063 49.974 277.741 48.8989C278.381 48.8094 278.97 49.2562 279.06 49.8967C279.148 50.537 278.703 51.1288 278.065 51.2181C271.346 52.1588 265.605 56.6559 263.131 63.0994L263.009 63.4287C262.006 66.1884 259.842 67.3805 258.456 65.2674C257.508 63.8193 257.575 61.0857 258.681 58.038C261.556 50.1166 268.78 44.7496 277.017 44.1601Z" fill="black"/>
<path d="M204.317 196.608C228.789 185.125 249.251 179.06 261.991 177.947C265.893 177.606 267.663 179.763 266.673 183.272C265.94 185.878 263.707 189.454 260.282 193.687C254.313 201.069 246.442 207.385 238.604 213.261C251.144 201.651 254.343 196.796 258.209 192.013L258.817 191.253C261.685 187.617 263.538 184.578 264.109 182.551L264.189 182.243C264.545 180.78 264.133 180.433 262.223 180.6C249.773 181.689 229.388 187.765 205.006 199.233C180.582 210.717 179.882 208.071 204.317 196.608Z" fill="black"/>
<path d="M92.3895 159.465L92.5683 159.892C93.8081 162.841 95.0966 165.761 96.5589 168.945L97.1274 170.181C96.9411 170.307 96.6961 170.44 96.4265 170.558C96.0395 170.728 95.6465 170.847 95.3511 170.887L95.2571 170.896L95.1149 170.725C94.0098 169.361 92.7272 167.042 91.8005 164.736C91.3069 163.508 90.9552 162.382 90.7966 161.516C90.732 161.164 90.7023 160.868 90.7047 160.643L90.7116 160.495C90.7139 160.459 90.7139 160.44 90.7051 160.438L90.7401 160.414C90.9374 160.277 91.4415 159.981 92.1905 159.573L92.3895 159.465Z" fill="black"/>
<path fill-rule="evenodd" clip-rule="evenodd" d="M123.321 148.783C124.088 147.843 125.081 147.983 126.339 148.748L126.662 148.953L127.567 149.554C127.82 149.716 127.929 149.773 128.077 149.832C128.419 149.968 128.586 150.357 128.45 150.701C128.313 151.044 127.925 151.212 127.583 151.075L127.461 151.025C127.23 150.925 127.055 150.822 126.587 150.51L125.938 150.077C125.831 150.006 125.738 149.948 125.647 149.892C124.895 149.434 124.553 149.386 124.355 149.63C124.23 149.783 124.261 150.11 124.509 150.78L124.781 151.483C125.322 152.924 125.325 153.568 124.361 154.118C123.532 154.591 123.106 154.37 121.914 153.199L121.625 152.912C120.862 152.147 120.462 151.881 120.205 151.936C120.119 151.954 120.019 152.015 119.897 152.145C119.754 152.298 119.714 152.787 119.802 153.654L119.936 154.787C120.093 156.171 120.03 156.53 119.46 156.912C118.675 157.439 117.631 156.844 115.696 155.101C115.422 154.854 115.399 154.431 115.645 154.156C115.892 153.881 116.313 153.858 116.587 154.105C117.415 154.85 118.039 155.335 118.476 155.584L118.574 155.638L118.655 155.678L118.657 155.595L118.652 155.394C118.643 155.23 118.623 155.032 118.582 154.694L118.497 153.999C118.335 152.59 118.386 151.806 118.924 151.23C119.224 150.91 119.559 150.705 119.929 150.627C120.785 150.445 121.394 150.812 122.405 151.803L122.915 152.307C123.466 152.838 123.67 152.973 123.702 152.955C123.827 152.883 123.808 152.662 123.47 151.791L123.322 151.414C122.85 150.199 122.761 149.472 123.321 148.783Z" fill="black"/>
<path fill-rule="evenodd" clip-rule="evenodd" d="M196.147 39.878L195.513 39.9349C194.94 39.9904 194.519 40.5013 194.575 41.076C194.609 41.425 194.811 41.7173 195.092 41.8805L194.983 41.9572C194.514 42.2905 194.401 42.9428 194.734 43.4143C195.067 43.8858 195.716 43.998 196.188 43.6646L197.25 42.9088C197.22 43.1533 197.194 43.4055 197.172 43.6666L197.067 44.9803C197.018 45.5556 197.445 46.0608 198.019 46.1087C198.593 46.1565 199.097 45.7288 199.143 45.1533L199.272 43.5813C199.306 43.2417 199.349 42.9233 199.4 42.6224C199.77 43.3233 199.845 43.8621 199.766 44.3719L199.736 44.5445L199.723 44.6507C199.684 45.179 200.05 45.6616 200.582 45.7556C201.148 45.8558 201.689 45.476 201.788 44.9076L201.824 44.7051C201.934 44.0014 201.884 43.2927 201.601 42.5066C201.747 42.6124 201.872 42.7299 201.985 42.858L202.097 42.9923L202.17 43.0708C202.548 43.4402 203.152 43.4691 203.565 43.1212C204.007 42.7499 204.065 42.0906 203.694 41.6482L203.561 41.491C203.515 41.437 203.468 41.3843 203.417 41.3327C203.966 41.3681 204.45 40.9694 204.519 40.4169C204.588 39.8439 204.182 39.3221 203.612 39.2518C202.626 39.1302 201.764 39.103 200.973 39.175C201.255 38.84 201.584 38.4998 201.968 38.1416C202.389 37.748 202.411 37.0865 202.018 36.6641C201.627 36.2418 200.967 36.2185 200.546 36.6124C199.841 37.2715 199.28 37.8979 198.831 38.5332C198.659 38.3503 198.479 38.1628 198.288 37.9705L197.838 37.5201C197.428 37.1155 196.768 37.1216 196.364 37.5336C195.961 37.9456 195.967 38.6075 196.379 39.012C196.663 39.2927 196.927 39.5583 197.168 39.8099C196.844 39.8263 196.504 39.849 196.147 39.878Z" fill="black"/>
<path fill-rule="evenodd" clip-rule="evenodd" d="M155.984 47.122C155.734 46.8648 155.328 46.8719 155.079 47.1382C154.83 47.4042 154.83 47.8286 155.081 48.0858C155.317 48.3292 155.528 48.5549 155.717 48.7648C155.315 48.9354 154.911 49.1568 154.479 49.4303L153.826 49.8508C153.538 50.0341 153.476 50.4011 153.686 50.6701C153.895 50.9393 154.297 51.0089 154.585 50.8255L155.369 50.3239C155.781 50.0714 156.151 49.8806 156.523 49.747C157.086 50.5339 157.206 51.038 157.133 51.5054L157.114 51.6161L157.105 51.6844C157.079 52.0234 157.301 52.3307 157.627 52.3885C157.975 52.4499 158.308 52.2037 158.373 51.8388L158.396 51.7088C158.502 51.0313 158.388 50.3487 157.904 49.5057C158.231 49.5009 158.586 49.5254 158.99 49.577C159.344 49.6224 159.66 49.3977 159.697 49.0752C159.737 48.7526 159.48 48.4545 159.127 48.4091C158.354 48.31 157.705 48.2986 157.112 48.3783C156.869 48.0768 156.585 47.7551 156.258 47.4085L155.984 47.122Z" fill="black"/>
<path fill-rule="evenodd" clip-rule="evenodd" d="M21.6582 221.409L22.3765 223.01L24.0138 223.481C24.1023 223.507 24.1535 223.599 24.1281 223.689C24.1202 223.715 24.1055 223.741 24.0855 223.76L22.8414 225.002L22.9111 226.79C22.9147 226.882 22.843 226.961 22.751 226.965C22.72 226.965 22.6891 226.957 22.662 226.942L21.2537 226.137C21.2097 226.113 21.1566 226.109 21.1096 226.128L19.6033 226.728C19.5178 226.762 19.4207 226.721 19.3869 226.634C19.3753 226.604 19.3721 226.573 19.3777 226.543L19.6947 224.783L18.6353 223.379C18.5795 223.304 18.5941 223.199 18.6674 223.145C18.6901 223.126 18.7168 223.117 18.7449 223.111L20.4317 222.873L21.3651 221.389C21.4141 221.31 21.5172 221.287 21.595 221.336C21.6229 221.353 21.6448 221.379 21.6582 221.409Z" fill="black"/>
<path fill-rule="evenodd" clip-rule="evenodd" d="M31.2374 132.553L31.9557 134.154L33.593 134.625C33.6815 134.651 33.7327 134.743 33.7073 134.832C33.6994 134.859 33.6847 134.884 33.6646 134.904L32.4206 136.147L32.4903 137.934C32.4939 138.026 32.4222 138.104 32.3302 138.108C32.2992 138.109 32.2683 138.101 32.2412 138.086L30.8328 137.282C30.7889 137.256 30.7358 137.253 30.6888 137.271L29.1825 137.872C29.097 137.906 28.9999 137.864 28.966 137.778C28.9544 137.749 28.9513 137.717 28.9569 137.686L29.2739 135.926L28.2145 134.522C28.1587 134.449 28.1733 134.344 28.2466 134.288C28.2693 134.271 28.296 134.26 28.3241 134.256L30.0109 134.017L30.9443 132.532C30.9933 132.454 31.0964 132.431 31.1742 132.48C31.2019 132.498 31.224 132.523 31.2374 132.553Z" fill="black"/>
<path d="M52.9244 274.023C53.4594 273.633 54.2082 273.751 54.5965 274.288C54.985 274.824 38.0484 288.661 31.4782 295.003L30.7146 295.746C26.9617 299.429 24.1949 302.618 22.6354 305.14C20.9826 307.812 20.8767 309.262 21.9437 309.855C25.9917 312.106 31.8119 313.202 40.1477 311.817L41.0042 311.671C44.1772 311.112 68.0454 305.892 67.6676 306.029L67.5208 306.074C66.7682 306.275 57.0495 309.645 53.6951 310.502L53.2897 310.605C48.1617 311.898 44.1488 312.785 40.5388 313.386C31.7178 314.851 25.4156 314.53 20.783 311.956C18.1098 310.47 18.3227 307.556 20.6008 303.873C22.3926 300.977 25.5443 297.397 29.8181 293.273C36.476 286.847 45.8409 279.181 52.9244 274.023Z" fill="black"/>
<path fill-rule="evenodd" clip-rule="evenodd" d="M177.634 107.573C177.926 107.378 178.319 107.461 178.509 107.759L182.832 114.475C183.023 114.773 182.941 115.172 182.649 115.367C182.357 115.562 181.964 115.479 181.773 115.181L177.453 108.465C177.26 108.167 177.342 107.768 177.634 107.573Z" fill="white"/>
<path fill-rule="evenodd" clip-rule="evenodd" d="M177.84 102.61C178.175 102.413 178.618 102.512 178.829 102.832L181.803 107.35C182.013 107.671 181.914 108.091 181.579 108.288C181.244 108.486 180.801 108.387 180.591 108.066L177.617 103.548C177.406 103.228 177.505 102.808 177.84 102.61Z" fill="white"/>
</g>
<defs>
<clipPath id="clip0_2_52">
<rect width="386" height="394" fill="white"/>
</clipPath>
</defs>
</svg>
