<svg width="368" height="353" viewBox="0 0 368 353" fill="none" xmlns="http://www.w3.org/2000/svg">
<g clip-path="url(#clip0_5_2)">
<path fill-rule="evenodd" clip-rule="evenodd" d="M234.745 352.726C326.818 352.726 339.87 311.765 353.831 304.238C367.791 296.71 359.111 281.605 368.267 270.212C382.893 252.012 391.757 261.392 396.597 237.782C401.437 214.173 392.638 207.495 392.638 186.415C392.638 144.184 412.868 124.194 387.034 102.098C361.2 80.0016 318.057 82.6088 275.388 82.6088C196.191 82.6088 148.745 -25.9586 43.1146 6.61277C6.71207 17.8376 10.7353 33.1344 18.734 87.1927C22.2074 110.667 -4.01812 140.513 0.532132 167.19C8.84258 215.912 30.791 209.303 72.2026 242.199C79.1501 247.718 89.2829 247.66 96.8567 253.32C109.554 262.809 110.371 277.565 134.109 287.517C172.387 303.565 169.14 352.726 234.745 352.726Z" fill="white"/>
<path d="M82.0067 226.961C82.0067 239.05 71.5847 248.85 58.7283 248.85C45.8721 248.85 35.4501 239.05 35.4501 226.961C35.4501 214.87 45.8721 205.071 58.7283 205.071C71.5847 205.071 82.0067 214.87 82.0067 226.961Z" fill="black"/>
<path fill-rule="evenodd" clip-rule="evenodd" d="M49.5994 148.914C45.6311 139.003 49.0976 133.065 51.3194 125.314C53.1755 118.839 67.6901 108.321 74.3701 119.288C76.3353 122.514 75.547 125.564 79.8422 128.4C90.2396 135.264 84.5674 121.023 84.9541 117.423C85.1426 115.667 83.6589 111.617 84.2114 109.922C84.7909 108.144 87.8801 105.618 87.8801 101.931C87.8801 98.2451 81.5963 96.8254 79.8422 95.9197C64.254 87.8714 54.3403 74.4285 59.2807 67.6062C66.1639 58.1008 93.1403 73.0566 101.246 74.4285C101.351 74.4463 102.799 66.8892 103.981 65.1589C106.347 61.6968 108.961 58.3361 112.08 55.5336C113.477 54.2782 115.371 53.5033 117.232 53.2522C122.803 52.5004 128.502 51.8842 134.081 52.5649C136.053 52.8054 147.795 39.2161 152.373 34.8327C187.5 1.20108 257.915 42.1845 219.531 97.875C212.477 108.111 203.456 111.366 202.291 114.984C199.703 123.019 215.995 121.962 222.895 122.821C234.684 124.287 240.495 130.343 233.177 140.723C228.618 147.19 201.871 146.86 190.155 142.184C185.807 140.448 180.432 132.859 176.322 139.085C173.491 143.374 162.45 152.473 150.605 157.622C145.259 159.945 139.17 158.544 134.608 160.62C128.187 163.54 109.23 175.803 101.246 175.8C93.2053 175.797 82.8 166.12 81.5963 165.486C79.7615 164.518 65.5676 161.746 58.5557 150.925C56.4354 147.653 51.052 152.541 49.5994 148.914Z" fill="black"/>
<path d="M374.998 84.3343C374.998 102.28 360.451 116.827 342.504 116.827C324.559 116.827 310.012 102.28 310.012 84.3343C310.012 66.3891 324.559 51.8416 342.504 51.8416C360.451 51.8416 374.998 66.3891 374.998 84.3343Z" fill="black"/>
<path d="M335.322 268.668C335.322 313.236 293.05 349.367 240.905 349.367C188.76 349.367 146.488 313.236 146.488 268.668C146.488 224.099 188.76 187.969 240.905 187.969C293.05 187.969 335.322 224.099 335.322 268.668Z" fill="black"/>
<path fill-rule="evenodd" clip-rule="evenodd" d="M160.862 312.669L161.922 313.437C159.53 315.583 155.931 312.915 153.914 310.414C150.67 306.391 147.379 302.116 146.392 297.045C145.83 294.159 146.055 291.186 146.282 288.254L147.197 276.436C147.602 271.197 148.009 265.951 148.915 260.776C151.369 246.773 157.546 233.44 166.641 222.512L166.733 222.403C168.338 220.473 170.092 218.367 170.061 215.866C169.996 210.576 173.043 205.632 177.043 202.169C181.043 198.704 185.941 196.481 190.766 194.306C192.95 193.32 195.803 192.438 197.498 194.134C200.98 197.624 206.794 195.401 211.395 193.628C217.044 191.453 223.077 190.281 229.13 190.183C229.306 190.18 229.484 190.177 229.663 190.176C233.296 190.122 237.386 190.065 239.604 187.249C241.015 185.456 243.714 185.56 245.98 185.831L261.563 187.696C262.754 187.838 264.181 188.163 264.555 189.301C265.563 192.356 269.113 193.602 272.191 194.53C283.136 197.83 293.834 202.311 303.125 208.969C312.417 215.628 320.271 224.584 324.438 235.23C317.662 225.969 310.712 216.534 301.309 209.959C298.619 208.076 295.757 206.451 292.852 204.92C285.995 201.306 278.86 198.191 271.447 195.928C237.034 185.424 197.228 195.166 171.556 220.374C167.832 224.028 164.343 228.055 162.231 232.824L165.02 233.69C160.6 235.666 157.318 239.994 156.607 244.783C158.386 241.736 160.921 239.136 163.921 237.279C163.063 240.147 160.829 242.452 158.639 244.712C155.85 247.59 153.131 250.396 153.42 254.201C154.744 250.725 158.081 248.101 161.772 247.633C155.918 253.353 149.636 260.066 149.822 268.248C151.958 263.523 155.583 259.486 160.053 256.856L153.62 265.501C151.187 268.77 148.624 272.507 149.18 276.544C151.296 272.745 154.322 269.457 157.933 267.034C156.195 270.989 153.713 274.614 150.655 277.664C153.563 277.314 156.362 276.109 158.617 274.24C157.671 275.558 156.821 277.049 156.788 278.671C156.757 280.294 157.808 282.034 159.413 282.268C159.9 281.18 161.424 280.722 162.431 281.359C159.382 284.325 159.351 289.82 162.364 292.821C162.633 291.411 163.822 290.222 165.232 289.956C162.984 293.887 162.58 298.822 164.159 303.066C164.637 300.661 165.971 298.436 167.866 296.882C166.774 302.585 164.357 308.031 160.862 312.669ZM159.53 310.852C161.433 310.833 162.617 308.703 162.815 306.81C163.052 304.546 162.49 302.282 161.932 300.075L158.622 286.98C157.998 287.178 157.926 287.856 157.85 288.566C157.785 289.172 157.719 289.801 157.304 290.175C156.465 289.133 156.371 287.556 157.077 286.419C157.791 285.274 157.324 283.668 156.311 282.776C155.299 281.882 153.892 281.579 152.542 281.534C151.813 281.509 151.037 281.565 150.441 281.985C149.844 282.406 149.529 283.298 149.954 283.892C151.215 285.66 152.165 287.65 152.745 289.743C152.788 289.9 152.829 290.058 152.872 290.218C153.159 291.304 153.457 292.422 154.251 293.197C154.866 293.795 155.022 294.709 155.148 295.559L156.159 302.439C156.343 303.691 156.527 304.968 156.316 306.217C156.106 307.464 155.431 308.703 154.299 309.268L157.914 310.5C158.439 310.677 158.975 310.858 159.53 310.852ZM198.935 198.072C198.223 198.223 197.625 197.597 197.114 197.063L197.057 197.002C196.533 196.455 195.635 195.98 195.084 196.498C188.667 202.534 181.366 207.628 173.485 211.564C172.056 212.279 171.863 214.206 171.862 215.804C171.862 216.338 172.374 217.089 172.707 216.671C174.332 214.635 176.445 213.055 178.533 211.498C184.41 207.116 190.356 202.694 197.092 199.805C197.911 199.455 198.868 198.96 198.935 198.072ZM263.423 191.284C263.059 190.43 262.026 190.122 261.114 189.951C258.631 189.483 256.102 189.272 253.577 189.06C250.109 188.768 246.646 188.478 243.309 187.525C242.239 187.22 241.326 188.304 240.738 189.249C242.498 189.066 244.268 188.99 246.036 189.023C249.113 189.079 252.173 189.462 255.227 189.846C256.78 190.04 258.343 190.236 259.83 190.719C260.003 190.775 260.178 190.834 260.354 190.895C261.369 191.244 262.42 191.604 263.423 191.284Z" fill="white"/>
<path d="M230.573 204.4C231.276 204.56 231.946 205.085 232.051 205.8C232.156 206.512 231.669 207.206 231.048 207.567C230.426 207.93 229.692 208.032 228.979 208.127L226.832 208.411C226.616 208.439 226.394 208.47 226.207 208.581C225.667 208.901 225.705 209.766 226.146 210.212C226.587 210.657 227.264 210.768 227.891 210.767C230.813 210.762 233.578 208.659 234.471 205.879C234.682 205.217 234.793 204.483 234.531 203.841C234.398 203.515 234.176 203.233 233.929 202.983C232.781 201.818 231.069 201.304 229.438 201.42C227.805 201.535 226.253 202.231 224.926 203.185C224.289 203.644 223.682 204.18 223.321 204.875C222.96 205.571 222.882 206.454 223.287 207.126C223.441 207.382 223.68 207.609 223.974 207.657C224.27 207.705 224.61 207.515 224.647 207.218C224.749 206.394 225.352 205.697 226.068 205.276C226.786 204.858 227.613 204.673 228.428 204.51C229.136 204.369 229.87 204.239 230.573 204.4Z" fill="white"/>
<path d="M173.007 245.203C173.809 240.456 177.645 236.595 182.114 234.807C184.578 233.822 187.398 233.389 189.875 234.34C190.486 234.573 191.078 234.897 191.519 235.381C191.932 235.836 192.192 236.41 192.389 236.993C193.649 240.727 192.37 245.043 189.666 247.908C186.963 250.773 183.026 252.277 179.096 252.56C177.838 252.65 176.485 252.598 175.445 251.883C174.406 251.167 173.889 249.578 174.69 248.603C175.069 248.62 175.273 248.958 175.482 249.304C175.585 249.476 175.689 249.649 175.818 249.785C176.254 250.256 176.975 250.29 177.616 250.263C180.402 250.145 183.23 249.455 185.499 247.831C187.766 246.208 189.397 243.558 189.348 240.77C189.333 239.871 189.138 238.952 188.629 238.211C187.793 236.996 186.214 236.447 184.741 236.545C183.27 236.641 181.89 237.293 180.638 238.072C178.987 239.096 177.463 240.382 176.43 242.024C175.396 243.667 174.891 245.698 175.328 247.589C174.942 248.286 173.793 248.147 173.32 247.506C172.845 246.867 172.874 245.989 173.007 245.203Z" fill="white"/>
<path d="M198.668 284.331C196.629 285.644 194.939 287.696 194.625 290.1C194.371 292.044 195.022 293.981 195.664 295.834C196.166 297.28 196.684 298.757 197.638 299.954C199.362 302.115 202.219 303.008 204.947 303.448C205.692 303.566 206.819 303.232 206.553 302.528C203.672 302.474 200.838 301.138 198.963 298.949C197.086 296.76 196.201 293.755 196.591 290.9C196.672 290.299 196.81 289.701 197.061 289.15C197.572 288.034 198.523 287.177 199.553 286.511C201.772 285.078 204.471 284.407 207.102 284.633C209.639 284.852 212.172 285.965 213.72 287.985C215.268 290.006 215.638 292.987 214.272 295.136C214.05 295.485 213.887 296.102 214.294 296.174C216.493 294.989 217.714 292.377 217.591 289.881C217.469 287.386 216.15 285.05 214.34 283.329C213.338 282.376 212.153 281.573 210.809 281.248C209.038 280.822 207.185 281.262 205.424 281.725C203.078 282.342 200.706 283.02 198.668 284.331Z" fill="white"/>
<path d="M298.786 287.431C291.415 284.679 283.404 283.653 275.576 284.458C272.295 284.796 269.002 285.466 266.051 286.943C260.484 289.73 256.503 295.466 255.842 301.656C255.179 307.846 257.856 314.294 262.708 318.195C264.548 319.675 266.636 320.782 268.727 321.892C270.155 322.648 271.584 323.407 272.936 324.283C273.322 324.653 272.453 325.022 271.944 324.857C267.216 323.332 262.625 321.01 259.253 317.362C255.149 312.922 253.148 306.619 253.94 300.627C254.73 294.635 258.3 289.068 263.414 285.848C267.46 283.3 272.296 282.227 277.075 282.054C281.852 281.882 286.615 282.564 291.341 283.297C294.292 283.754 297.752 284.63 298.786 287.431Z" fill="white"/>
<path d="M221.22 296.667C220.886 295.901 219.54 295.701 219.295 296.5C217.731 301.589 212.764 305.437 207.447 305.681C206.244 305.736 205.042 305.625 203.843 305.508C201.264 305.259 198.603 304.963 196.345 303.694C193.097 301.868 191.142 298.118 191.118 294.39C191.096 290.663 192.863 287.042 195.547 284.457C195.174 283.414 193.575 283.917 192.781 284.689C188.379 288.968 187.624 296.354 190.713 301.659C193.801 306.964 200.274 309.937 206.376 309.263C212.478 308.589 217.987 304.503 220.823 299.059C221.21 298.317 221.555 297.434 221.22 296.667Z" fill="white"/>
<path d="M183.01 322.436C182.017 326.248 181.922 330.291 182.737 334.145C183.103 335.874 183.143 336.827 183.15 337.004V337.029L183.152 337.035C183.152 337.035 183.152 337.025 183.153 337.004C183.162 336.827 183.205 335.869 183.578 334.139C184.413 330.277 184.214 326.198 183.01 322.436Z" fill="white"/>
<path d="M188.291 324.742C186.878 327.702 187.054 331.364 188.741 334.176C189.122 334.808 189.409 335.322 189.62 335.7C189.906 336.209 190.055 336.476 190.107 336.458C190.163 336.439 190.103 336.081 189.978 335.333C189.928 335.034 189.867 334.672 189.799 334.243L188.291 324.742Z" fill="white"/>
<path d="M192.266 328.521C191.667 330.411 192.108 332.596 193.394 334.107C194.707 335.647 195.134 336.141 194.735 334.157C194.326 332.131 193.48 330.195 192.266 328.521Z" fill="white"/>
<path d="M307.331 307.025C305.527 314.263 299.769 319.747 294.185 324.693C294.44 325.242 295.264 325.045 295.792 324.748C301.448 321.565 306.026 316.376 308.114 310.232C310.202 304.086 309.682 297.025 306.387 291.434C306.11 290.965 305.758 290.465 305.222 290.362C304.688 290.256 304.072 290.877 304.386 291.322C307.554 295.809 308.658 301.694 307.331 307.025Z" fill="white"/>
<path d="M226.013 241.674C226 240.528 226.016 239.29 226.707 238.377C227.659 237.12 229.466 236.987 231.042 236.965C231.746 236.956 232.458 236.947 233.142 237.11C234.6 237.456 235.761 238.532 236.796 239.615C237.025 239.855 237.269 240.151 237.212 240.478C237.142 240.884 236.634 241.07 236.23 240.987C235.963 240.932 235.721 240.799 235.482 240.666C235.36 240.598 235.237 240.531 235.113 240.474C233.663 239.808 231.959 240.537 230.657 241.458C230.453 241.603 230.232 241.789 230.228 242.039C230.222 242.291 230.438 242.486 230.641 242.636C232.4 243.923 234.653 244.521 236.819 244.272C237.337 244.212 237.946 244.022 238.08 243.519C238.133 243.322 238.113 243.09 238.094 242.867C238.06 242.492 238.028 242.14 238.344 242.01C238.508 241.942 238.693 241.99 238.863 242.041C240.037 242.381 241.407 242.93 241.635 244.13C241.7 244.477 241.653 244.838 241.543 245.174C241.221 246.153 240.319 246.92 239.3 247.083C238.847 247.154 238.385 247.115 237.928 247.075C236.735 246.973 235.539 246.871 234.357 246.68C232.186 246.331 230.062 245.684 228.064 244.764C227.372 244.444 226.651 244.05 226.3 243.373C226.033 242.858 226.021 242.254 226.013 241.674Z" fill="white"/>
<path d="M270.614 213.439C269.915 211.552 268.23 210.064 266.27 209.605C265.665 209.463 264.98 209.429 264.466 209.78C263.953 210.13 263.777 210.987 264.267 211.37C264.742 211.742 264.454 212.618 263.873 212.784C263.293 212.949 262.668 212.554 262.378 212.026C262.09 211.496 262.059 210.867 262.054 210.264C262.05 209.458 262.124 208.56 262.719 208.017C262.945 207.81 263.228 207.677 263.507 207.551C264.668 207.033 265.949 206.593 267.188 206.872C268.367 207.137 269.308 208.008 270.131 208.895C270.806 209.623 271.445 210.383 272.043 211.174C272.572 211.871 273.078 212.615 273.276 213.466C273.474 214.318 273.304 215.305 272.646 215.881C272.002 216.445 271.012 216.494 270.23 216.145C269.539 215.838 268.95 215.16 269.002 214.407C269.052 213.652 269.979 213.028 270.614 213.439Z" fill="white"/>
<path fill-rule="evenodd" clip-rule="evenodd" d="M276.842 266.473C278.572 266.423 280.185 265.09 280.56 263.4C280.788 262.371 280.507 261.147 279.61 260.595C278.956 260.191 278.133 260.221 277.365 260.27C276.302 260.338 275.198 260.431 274.275 260.961C273.351 261.492 272.665 262.592 272.953 263.617C273.424 265.284 275.111 266.522 276.842 266.473ZM277.064 263.975C276.73 264.066 276.252 263.978 276.222 263.634C276.209 263.49 276.286 263.355 276.375 263.241C276.868 262.604 277.804 262.356 278.546 262.667C278.288 263.299 277.723 263.798 277.064 263.975Z" fill="white"/>
<path d="M277.958 238.36C277.676 237.709 278.223 236.952 278.886 236.701C279.417 236.502 279.995 236.522 280.567 236.543C280.711 236.549 280.853 236.553 280.993 236.555C281.704 236.564 282.487 236.447 282.947 235.907C283.108 235.716 283.219 235.436 283.095 235.219C282.966 234.992 282.661 234.952 282.399 234.939C280.592 234.846 278.458 234.9 277.417 236.38C277.193 236.698 276.644 236.592 276.435 236.263C276.225 235.935 276.274 235.506 276.393 235.136C276.82 233.81 278.046 232.845 279.383 232.459C280.721 232.071 282.158 232.194 283.517 232.5C283.975 232.605 284.45 232.741 284.785 233.071C285.05 233.332 285.199 233.69 285.295 234.049C285.759 235.771 285.075 237.74 283.647 238.806C282.219 239.87 280.135 239.962 278.618 239.026C278.347 238.861 278.084 238.652 277.958 238.36Z" fill="white"/>
<path d="M271.764 268.758C272.603 269.765 273.597 270.679 274.802 271.191C277.239 272.226 280.356 271.27 281.793 269.045C282.317 268.236 282.55 267.002 281.776 266.426C280.536 269.032 276.94 270.184 274.417 268.782C273.933 268.513 273.494 268.169 273.094 267.788C271.28 266.05 270.334 263.213 271.398 260.939C271.746 260.196 272.279 259.557 272.862 258.981C274.131 257.726 275.95 256.699 277.646 257.257C277.717 257.281 277.787 257.306 277.858 257.332C278.094 257.42 278.334 257.507 278.584 257.492C278.907 257.474 279.246 257.184 279.161 256.871C279.138 256.777 279.08 256.697 279.021 256.622C277.972 255.286 275.915 254.874 274.432 255.701C272.668 256.689 270.874 257.849 269.936 259.639C268.409 262.552 269.655 266.232 271.764 268.758Z" fill="white"/>
<path fill-rule="evenodd" clip-rule="evenodd" d="M299.868 223.816C299.789 223.927 299.809 224.083 299.828 224.231C299.85 224.407 299.871 224.572 299.726 224.643C299.197 224.904 298.566 224.877 298.003 224.704C296.466 224.233 295.436 222.823 294.567 221.471C294.058 220.68 293.552 219.84 293.47 218.903C293.387 217.968 293.867 216.913 294.768 216.648C295.774 216.353 296.76 217.101 297.543 217.798C298.426 218.583 299.329 219.394 299.875 220.442C300.421 221.491 300.543 222.845 299.868 223.816ZM296.526 220.307C296.742 220.518 296.861 220.8 296.979 221.084C297.096 221.363 297.213 221.642 297.425 221.852C297.691 222.119 298.096 222.237 298.466 222.159C297.775 221.089 296.975 220.091 296.081 219.184C295.841 219.257 295.822 219.61 295.965 219.815C296.053 219.939 296.174 220.029 296.297 220.121C296.377 220.18 296.455 220.239 296.526 220.307Z" fill="white"/>
<path d="M164.975 316.919C164.889 318.322 164.997 319.949 166.12 320.794C166.494 320.585 166.469 320.049 166.422 319.625C166.132 317.001 166.946 314.473 167.764 311.928C168.352 310.106 168.941 308.275 169.13 306.396C169.185 305.85 169.038 305.104 168.491 305.083C168.081 305.067 167.816 305.501 167.65 305.877C166.116 309.36 165.205 313.119 164.975 316.919Z" fill="white"/>
<path d="M273.923 266.306C275.189 266.867 276.595 267.438 277.921 267.036C278.448 266.876 278.917 266.571 279.379 266.271C279.377 267.046 278.712 267.697 277.969 267.918C277.226 268.14 276.427 268.021 275.669 267.857C274.827 267.675 273.798 267.159 273.923 266.306Z" fill="white"/>
<path d="M173.682 330.996C174.005 330.42 174.061 329.736 174.108 329.078L174.492 323.832C174.678 321.257 174.866 318.671 174.699 316.095C174.677 315.771 174.644 315.428 174.455 315.164C174.265 314.899 173.864 314.757 173.605 314.954C173.414 315.099 173.365 315.361 173.333 315.598C172.917 318.577 172.695 321.582 172.668 324.589C172.649 326.771 172.748 329.025 173.682 330.996Z" fill="white"/>
<path d="M167.948 326.487C167.612 326.771 167.052 326.521 166.866 326.121C166.681 325.723 166.756 325.257 166.835 324.823C167.665 320.296 168.608 315.789 169.66 311.306C169.686 311.194 169.715 311.078 169.787 310.988C170.064 310.646 170.625 310.991 170.821 311.385C171.304 312.351 171.072 313.505 170.83 314.557L168.238 325.87C168.186 326.095 168.124 326.337 167.948 326.487Z" fill="white"/>
<path d="M176.93 326.688C176.785 328.385 177.04 330.09 177.295 331.776C177.385 332.375 177.817 333.173 178.359 332.9L179.415 321.6C179.458 321.14 179.488 320.631 179.202 320.268C178.918 319.904 178.196 319.919 178.104 320.372L177.326 324.246C177.163 325.056 177 325.865 176.93 326.688Z" fill="white"/>
<path d="M286.049 292.055C283.04 290.507 279.379 289.895 276.253 291.193C273.92 292.163 267.322 296.349 266.445 301.715C265.856 305.307 265.862 308.977 267.12 312.446L267.322 312.989C267.697 313.971 268.89 315.101 269.556 314.288C267.61 310.767 267.246 306.409 268.582 302.613C269.918 298.819 272.934 295.651 276.658 294.128C277.442 293.808 278.26 293.555 279.102 293.477C280.807 293.314 282.509 293.867 284.032 294.647C287.313 296.328 291.376 299.124 292.939 302.462C294.444 305.681 295.552 309.52 294.19 312.802C292.828 316.085 283.879 318.458 283.879 318.458L284.869 320.267C284.869 320.267 289.879 319.278 292.939 317.05C305.783 307.695 288.926 293.537 286.049 292.055Z" fill="white"/>
<path fill-rule="evenodd" clip-rule="evenodd" d="M58.9981 245.865C54.4555 246.353 49.6441 245.302 46.0975 242.423C43.5854 240.382 41.8205 237.545 40.5818 234.556C39.2372 231.31 38.4641 227.83 38.3088 224.319C38.2503 222.999 38.2817 221.653 38.67 220.389C39.309 218.308 40.8479 216.639 42.4188 215.132C45.7609 211.927 49.6893 209.001 54.2706 208.328C57.3924 207.869 60.5679 208.495 63.6239 209.281C66.0238 209.898 68.4207 210.626 70.5794 211.844C75.3496 214.533 78.6551 219.664 79.1332 225.118C79.6115 230.573 79.0231 234.189 71.6613 240.965C67.836 243.463 63.5406 245.378 58.9981 245.865ZM67.0086 228.741C66.272 228.973 65.5375 229.385 64.777 229.25C63.2231 228.976 62.9451 226.845 63.29 225.306C64.2777 220.899 67.3497 217.007 71.4068 215.023C70.4884 213.356 68.0487 213.234 66.3232 214.034C64.5976 214.835 63.2487 216.278 61.5802 217.191C60.7497 217.645 59.7656 217.968 58.8622 217.685C57.3757 217.219 56.8083 215.271 57.2949 213.792C57.7815 212.313 58.9962 211.208 60.1623 210.176C55.9365 210.324 51.7549 211.592 48.1588 213.817C45.3436 215.558 42.6733 218.413 43.0469 221.701C45.3744 219.828 48.1074 218.461 51.0024 217.721C51.6164 217.564 52.3871 217.485 52.7714 217.99C53.0623 218.372 52.9789 218.921 52.7923 219.363C51.867 221.558 49.1457 222.293 47.4579 223.975C47.2362 224.195 47.0237 224.45 46.97 224.757C46.8649 225.361 47.4403 225.912 48.0448 226.012C48.6494 226.113 49.2564 225.894 49.8297 225.676C51.0207 225.228 52.2116 224.778 53.4026 224.33C54.2647 224.004 55.2882 223.693 56.0549 224.204C56.8481 224.734 56.9229 225.935 56.4746 226.777C56.0264 227.618 55.2034 228.183 54.4117 228.713C52.5029 229.993 50.5944 231.272 48.6858 232.55C47.0877 233.622 45.2973 235.066 45.4493 236.984C45.5922 238.789 47.5781 240.016 49.3852 239.899C51.1922 239.784 52.7825 238.678 54.1163 237.455C55.45 236.229 56.6538 234.831 58.2025 233.893C59.2133 233.28 60.6553 232.94 61.4763 233.79C62.1106 234.446 62.0494 235.503 61.8113 236.383C61.1253 238.924 59.2701 241.122 56.8819 242.226C58.825 242.674 60.8515 242.76 62.8252 242.474C63.9509 242.312 65.1162 241.999 65.9303 241.206C66.7443 240.411 67.0595 239.013 66.3533 238.122C65.3001 236.792 65.342 234.846 66.0149 233.289C66.6878 231.731 67.8898 230.474 69.0673 229.252C68.7303 228.558 67.7455 228.51 67.0086 228.741ZM76.0048 231.76C77.063 229.314 77.1015 226.548 76.8336 223.898C76.5372 220.964 75.5149 217.611 72.7525 216.584C68.7043 218.264 65.5801 222.012 64.6571 226.298C64.5796 226.657 64.5188 227.045 64.6605 227.384C64.8022 227.724 65.223 227.973 65.5493 227.801C66.6686 227.215 68.045 226.882 69.1829 227.431C70.3206 227.982 70.8748 229.696 69.9534 230.561C68.9354 231.516 67.89 232.51 67.3409 233.793C66.7915 235.078 66.8707 236.738 67.9047 237.677C68.6818 238.381 68.6837 239.766 67.9088 240.474C70.1121 239.83 71.6821 237.934 73.111 236.138C74.2032 234.766 75.308 233.37 76.0048 231.76ZM50.6398 219.112C48.3478 220.062 46.1229 221.175 43.9875 222.438C43.4796 222.739 42.9664 223.057 42.5949 223.516C42.0935 224.134 41.9031 224.942 41.7481 225.725C41.2475 228.25 40.9894 230.968 42.0499 233.314C42.3883 234.063 42.8509 234.748 43.3113 235.429C43.4472 235.63 43.6015 235.845 43.8345 235.911C44.0672 235.979 44.3749 235.791 44.3201 235.556C44.1516 234.828 44.7031 234.143 45.2473 233.629C48.4348 230.629 52.7288 228.907 55.5951 225.599C55.1603 225.084 54.3356 225.326 53.7156 225.591C52.2389 226.221 50.7163 226.743 49.1639 227.153C48.363 227.365 47.4705 227.537 46.7396 227.147C45.6699 226.576 45.4959 225.016 46.0609 223.943C46.6259 222.872 47.7 222.179 48.7358 221.549C49.7717 220.92 50.8585 220.263 51.4801 219.223C51.367 218.925 50.9327 218.99 50.6398 219.112ZM58.484 239.21C59.497 238.396 60.5913 237.437 60.7019 236.142C60.7596 235.464 60.3254 234.637 59.6491 234.702C59.4412 234.721 59.2513 234.825 59.0721 234.931C56.1266 236.691 54.1881 240.132 50.8653 240.987C51.8043 241.407 52.7834 241.739 53.7848 241.973C54.083 242.044 54.3935 242.104 54.6935 242.042C55.0426 241.971 55.3345 241.74 55.6124 241.517C56.5696 240.749 57.5268 239.979 58.484 239.21ZM61.2234 211.08C60.5678 211.806 59.9124 212.531 59.2569 213.256C58.7378 213.83 58.1808 214.588 58.4698 215.305C58.6827 215.835 59.3114 216.102 59.8801 216.059C60.4487 216.014 60.9665 215.723 61.4433 215.41C63.1426 214.295 64.6725 212.776 66.6554 212.331C65.2806 211.831 63.9056 211.329 62.5307 210.829C62.2445 210.724 61.9251 210.62 61.6435 210.736C61.4744 210.805 61.3459 210.946 61.2234 211.08Z" fill="white"/>
<path d="M156.763 95.7806C151.853 85.1094 149.804 73.1381 150.888 61.442C150.905 61.242 150.932 61.028 151.064 60.8768C151.25 60.6636 151.632 60.6724 151.808 60.8943C151.745 67.3282 151.685 73.801 152.736 80.1489C153.785 86.4969 156.015 92.7773 160.088 97.7593C160.209 97.9081 160.334 98.0562 160.457 98.2045C161.157 99.0445 161.864 99.8915 162.261 100.904C159.613 100.853 157.87 98.1864 156.763 95.7806Z" fill="white"/>
<path fill-rule="evenodd" clip-rule="evenodd" d="M219.563 57.9862L218.354 56.4631C217.025 54.7876 215.394 52.958 213.255 52.9556C212.014 52.9543 210.873 53.5899 209.795 54.2074L208.123 55.1668C207.666 55.4289 207.197 55.7014 206.874 56.1183C205.945 57.3204 206.623 59.0767 207.502 60.3165C208.108 61.1744 208.836 61.9981 209.804 62.411C211.055 62.945 212.493 62.7089 213.804 62.3473C215.599 61.8522 217.334 61.138 218.957 60.2253C219.477 59.9337 220.049 59.5061 220.024 58.9112C220.008 58.5609 219.78 58.2608 219.563 57.9862ZM209.007 59.1616C208.799 58.8306 208.583 58.477 208.58 58.086C208.575 57.3217 209.337 56.8088 210.007 56.4428L212.393 55.142C212.754 54.9453 213.128 54.7442 213.538 54.7165C213.948 54.689 214.404 54.8863 214.541 55.2733C214.948 56.4153 215.95 57.3261 217.125 57.6223C217.506 57.7183 217.628 58.245 217.448 58.5938C217.269 58.9426 216.9 59.1465 216.55 59.3209C215.292 59.9446 213.978 60.4532 212.629 60.8382C212.088 60.9925 211.515 61.1276 210.967 60.9975C210.074 60.7847 209.496 59.9405 209.007 59.1616Z" fill="white"/>
<path d="M192.041 70.9347C189.677 71.2101 189.227 75.4745 190.325 77.7491C190.551 78.217 190.905 78.6989 191.42 78.7643C192.302 78.876 192.789 77.7886 192.984 76.9218L192.989 76.9017C193.246 75.7594 194.393 70.6611 192.041 70.9347Z" fill="white"/>
<path d="M179.844 76.5288C180.318 75.4257 180.475 74.1894 180.294 73.0027C180.21 72.4515 180.044 71.8916 179.676 71.473C179.307 71.0543 178.699 70.8109 178.174 70.9996C177.698 71.1705 177.401 71.6352 177.176 72.087C176.381 73.6823 176.066 75.5114 176.278 77.2806C176.375 78.1037 177.413 78.5534 178.2 78.2931C178.987 78.0328 179.517 77.2907 179.844 76.5288Z" fill="white"/>
<path d="M186.816 74.0041C187.183 73.6998 187.648 74.2524 187.796 74.7054C188.286 76.194 188.691 77.7104 189.009 79.2448C189.21 80.2145 189.378 81.2219 189.163 82.1887C188.86 83.5519 187.824 84.6608 186.622 85.3708C185.419 86.081 184.052 86.4488 182.702 86.8085C182.345 86.9035 181.898 86.9713 181.668 86.683C181.472 86.4384 181.568 86.0553 181.79 85.8349C182.009 85.6187 182.313 85.5191 182.606 85.4231L182.622 85.4175C184.726 84.7267 186.973 83.4796 187.463 81.3207C187.732 80.1336 187.405 78.9411 187.075 77.7434C186.776 76.6528 186.476 75.558 186.624 74.4592C186.646 74.2918 186.687 74.1118 186.816 74.0041Z" fill="white"/>
<path d="M172.128 69.1481C171.575 68.3809 172.019 67.2152 172.822 66.7149C173.624 66.2145 174.64 66.2213 175.578 66.3425C176.698 66.4871 177.801 66.7721 178.851 67.1886C179.075 67.2772 179.315 67.3901 179.414 67.6094C179.596 68.0158 179.124 68.4607 178.678 68.4604C178.32 68.4601 177.994 68.2875 177.673 68.1169L177.614 68.0851L177.543 68.0479L177.512 68.0315L177.474 68.0126L177.441 67.9958C175.687 67.1261 173.364 67.6302 172.128 69.1481Z" fill="white"/>
<path d="M192.33 68.8838C193.163 68.7453 194.047 68.9375 194.747 69.4099C195.04 69.6073 195.458 69.2752 195.46 68.9223C195.461 68.5695 195.198 68.2726 194.921 68.0543C194.323 67.5842 193.579 67.3028 192.82 67.2601C192.33 67.2324 191.788 67.3271 191.473 67.7028C191.158 68.0786 191.253 68.7836 191.725 68.9146C191.893 68.9612 192.071 68.9297 192.246 68.8986C192.274 68.8936 192.302 68.8885 192.33 68.8838Z" fill="white"/>
<path d="M181.993 90.5255C182.227 90.3932 182.536 90.6242 182.572 90.8912C182.606 91.1582 182.453 91.4135 182.28 91.6189C181.407 92.6496 179.902 92.967 178.573 92.7254C177.243 92.4837 176.051 91.7692 174.931 91.0154C174.404 90.6609 173.885 90.2948 173.373 89.9175C172.843 89.5262 172.279 89.0474 172.216 88.3922C172.152 87.7367 172.993 87.0761 173.472 87.5275C174.65 88.6371 175.855 89.765 177.32 90.4515C178.786 91.1381 180.583 91.321 181.993 90.5255Z" fill="white"/>
<path d="M172.232 58.8625C173.564 59.9435 175.082 60.795 176.698 61.3682C181.916 63.2182 187.778 62.0568 192.812 59.7556C193.582 59.404 194.563 59.5894 195.152 60.1972C191.919 62.5007 187.958 63.7669 183.989 63.766C183.113 63.7659 182.24 63.7058 181.367 63.6296C179.584 63.4738 177.786 63.2451 176.108 62.6203C174.428 61.9954 172.861 60.9382 171.911 59.42L172.232 58.8625Z" fill="white"/>
<path d="M229.044 129.175C228.992 129.353 229.134 129.523 229.266 129.653L231.249 131.62C231.464 131.055 231.222 130.396 230.807 129.956C230.391 129.515 229.828 129.247 229.281 128.989C229.174 128.994 229.074 129.072 229.044 129.175Z" fill="white"/>
<path d="M161.578 47.5936C161.487 47.4955 161.381 47.409 161.259 47.356C160.905 47.2031 160.489 47.3598 160.18 47.5892C158.944 48.5039 158.938 50.6428 160.171 51.5631C160.772 51.0512 161.387 50.5195 161.74 49.813C162.092 49.1067 162.114 48.1733 161.578 47.5936Z" fill="white"/>
<path fill-rule="evenodd" clip-rule="evenodd" d="M86.809 124.487C86.6374 127.922 83.9871 131.642 80.5717 131.235C79.0303 129.453 77.8238 127.24 76.6314 125.053C74.3415 120.853 72.1036 116.748 67.6451 115.969C63.2658 115.204 59.1876 118.425 56.4604 121.935C52.5101 127.02 49.9575 133.179 49.1529 139.567C48.6798 143.322 50.22 148.531 53.9826 148.117C58.2803 147.645 61.3368 151.026 64.4456 154.463C67.3228 157.647 70.2448 160.879 74.2373 161.151C78.9909 161.477 82.874 164.324 86.8045 167.207C89.4298 169.132 92.0763 171.074 95.0173 172.289C100.55 174.575 106.931 174.132 112.579 172.146C118.227 170.162 123.253 166.742 128.01 163.107L128.26 162.917C130.857 160.931 133.575 158.851 136.804 158.415C153.316 156.177 168.674 146.493 177.808 132.557C190.757 142.909 208.863 146.447 224.757 141.731C227.455 140.931 230.169 139.858 232.168 137.88C234.167 135.902 235.302 132.83 234.318 130.195C233.244 127.312 230.031 125.769 226.978 125.398C225.304 125.195 223.617 125.255 221.929 125.315C220.536 125.364 219.144 125.414 217.757 125.316C209.362 124.723 202.371 118.932 196.013 113.416C205.224 110.591 212.693 103.494 217.624 95.2176C222.555 86.941 225.198 77.5121 227.205 68.0895C228.261 63.1309 229.047 57.5448 226.213 53.3402C224.945 51.4583 223.086 50.0824 221.233 48.7113C219.148 47.1674 217.069 45.6296 215.854 43.3823C213.514 39.0596 208.955 36.4962 204.629 34.1611C193.311 28.0503 180.31 21.7608 168.112 25.8418C163.36 27.4315 159.256 30.4777 155.255 33.4925C148.609 38.4987 141.49 44.3712 140.224 52.5945C129.351 47.7299 115.284 51.615 108.448 61.3706C106.884 63.6019 105.684 66.0627 104.485 68.5209C103.073 71.4149 101.663 74.3055 99.6643 76.8142C91.6354 73.1561 83.4547 69.831 75.1505 66.8503C71.4688 65.5287 67.0707 64.3608 63.8977 66.6487C61.3537 68.4831 60.5734 72.0837 61.3201 75.13C62.0668 78.1761 64.0605 80.7587 66.1983 83.0535C70.8366 88.0322 76.408 92.1387 82.5364 95.0955C82.7343 95.191 82.9333 95.2858 83.1331 95.381C85.0519 96.2951 87.0246 97.2347 88.3023 98.9127C89.7132 100.765 89.8007 103.865 87.8228 105.095C84.9017 106.91 84.3638 110.984 84.9625 114.371C85.1672 115.529 85.4675 116.675 85.7674 117.82C86.3453 120.026 86.9217 122.225 86.809 124.487ZM166.117 142.599C158.756 150.327 148.399 154.85 137.807 156.171C127.216 157.493 116.401 155.775 106.284 152.374C109.005 152.372 110.973 148.809 109.525 146.505C103.949 153.006 95.4487 156.05 87.3485 158.829C80.0307 161.34 71.2838 159.517 65.9084 153.951C60.5331 148.387 59.0784 139.257 62.8586 132.507C64.5018 129.572 67.2887 127.018 70.6393 126.73C73.99 126.442 77.5979 129.221 77.2872 132.569C75.4227 132.245 73.4605 133.829 73.3837 135.72C80.5968 134.943 87.3778 130.81 91.3739 124.754C92.7531 122.664 93.8012 120.388 94.8503 118.11C95.5545 116.58 96.2594 115.049 97.0649 113.574C99.0706 109.9 101.95 106.398 105.94 105.136C109.143 104.123 112.605 104.685 115.915 105.256L130.621 107.791C131.722 106.842 129.939 105.319 128.516 105.021C123.92 104.061 119.26 103.469 114.599 102.877C110.277 102.329 105.955 101.78 101.684 100.937C92.8054 99.1854 83.8822 95.9815 77.4201 89.6465C81.8034 87.1249 85.1383 82.8401 86.5068 77.9718C86.7835 76.9869 86.1239 75.369 85.3242 76.0069C84.4104 79.1672 83.4199 82.4633 81.1304 84.8258C78.8409 87.1881 74.8223 88.2258 72.2309 86.1991C68.867 83.5681 65.3301 80.698 63.9999 76.6399C62.6694 72.5816 64.774 67.1316 69.0156 66.634C70.9194 66.4106 72.7805 67.1973 74.5362 67.967L92.2485 75.7311C97.5203 78.0419 102.87 80.3758 108.565 81.2143C112.563 81.803 116.629 81.6379 120.667 81.4712L132.115 80.999C132.583 80.9798 133.063 80.9579 133.494 80.7741C134.644 80.2833 135.034 78.8786 135.288 77.6543C138.36 62.8309 142.487 47.1878 153.652 36.9656C158.648 32.3915 164.872 29.171 171.492 27.7342C178.018 26.3181 185.218 26.7344 190.835 30.3433C181.411 31.0369 172.26 35.011 165.319 41.4238C162.404 38.3111 156.977 40.8554 154.651 44.4308C151.046 49.9732 151.111 57.6722 154.811 63.1524C157.924 67.7653 159.079 73.2693 160.236 78.7861C161.3 83.8563 162.366 88.9373 164.957 93.3473C169.056 100.324 176.688 104.802 184.66 106.19C192.63 107.579 200.895 106.129 208.471 103.287C199.991 111.745 186.446 114.671 175.232 110.466C174.415 110.159 173.601 109.817 172.787 109.474C170.21 108.389 167.625 107.301 164.861 107.333C166.48 109.048 168.548 110.335 170.802 111.03C168.204 115.394 165.478 119.683 162.629 123.887C162.263 124.425 161.849 124.998 161.225 125.18C160.53 125.383 159.804 125.037 159.17 124.686C153.933 121.791 149.238 117.917 145.4 113.324L137.724 122.662C141.663 127.477 146.269 131.746 151.369 135.31C144.581 143.695 134.298 149.157 123.55 150.085C134.676 150.651 145.938 145.433 152.699 136.579C156.979 138.983 161.476 141 166.117 142.599ZM201.301 60.4914C203.759 57.8109 204.669 53.982 204.459 50.3509C204.249 46.7199 203.028 43.2278 201.677 39.851C205.197 39.4337 208.776 40.7622 211.58 42.9315C214.386 45.101 216.492 48.0529 218.22 51.1494C220.316 54.9028 221.921 58.9616 222.618 63.2033C224.26 73.1909 220.757 83.3742 215.768 92.1816C214.8 93.8918 213.758 95.5902 212.345 96.9556C210.922 98.3304 209.169 99.3186 207.376 100.153C199.969 103.593 191.451 104.586 183.452 102.941C188.558 98.6898 192.164 92.8331 194.461 86.5985C196.758 80.364 197.808 73.7377 198.414 67.1212L198.417 67.0841C198.569 65.4157 198.73 63.6622 199.68 62.2844C199.996 61.8283 200.385 61.4329 200.776 61.0373C200.953 60.8574 201.129 60.6773 201.301 60.4914ZM192.061 88.0493C189.857 93.2029 186.443 97.9352 181.815 101.098C181.274 101.468 180.692 101.826 180.04 101.902C179.464 101.969 178.888 101.811 178.335 101.636C174.401 100.394 170.684 98.193 168.159 94.9296C167.243 93.7453 166.496 92.4391 165.828 91.0987C160.971 81.3372 160.495 69.4939 164.554 59.3739C164.748 58.8906 165.026 58.3478 165.537 58.2464C166.197 58.1153 166.705 58.7913 167.076 59.3535C170.108 63.9482 175.778 66.2744 181.278 66.5154C186.777 66.7563 192.188 65.1931 197.403 63.4303C196.453 65.7546 196.21 68.2866 195.97 70.7947C195.941 71.1105 195.91 71.4262 195.879 71.7408C195.319 77.3178 194.264 82.8955 192.061 88.0493ZM190.94 40.1705C193.755 39.5308 197.039 39.3548 199.189 41.2797C199.883 41.9015 200.4 42.6991 200.824 43.529C203.487 48.7338 202.443 55.589 198.353 59.7661C193.623 64.5949 186.138 65.3911 179.403 64.8178C176.987 64.6121 174.5 64.2403 172.438 62.9651C169.769 61.3151 168.187 58.4076 166.727 55.6308C173.216 48.3792 181.451 42.3276 190.94 40.1705ZM213.702 127.707C212.819 129.937 211.928 132.196 211.638 134.577C211.349 136.957 211.725 139.512 213.174 141.423C201.159 142.088 188.95 138.384 179.332 131.155C182.434 126.765 184.883 121.916 186.575 116.814C187.244 114.799 189.795 113.959 191.867 114.425C193.773 114.855 195.374 116.078 196.935 117.271C197.07 117.374 197.205 117.476 197.339 117.578C202.452 121.461 208.088 124.591 213.702 127.707ZM129.75 158.153C127.856 160.285 125.591 162.057 123.278 163.726C118.45 167.213 113.185 170.381 107.317 171.395C98.7163 172.879 89.4248 169.169 84.2112 162.171L102.97 155.172C103.419 155.005 103.884 154.835 104.362 154.862C104.633 154.878 104.893 154.955 105.153 155.032C105.327 155.084 105.501 155.135 105.678 155.169C106.28 155.283 106.887 155.184 107.498 155.084C107.877 155.02 108.258 154.958 108.639 154.946C110.044 154.904 111.334 155.545 112.611 156.18L112.613 156.182C112.937 156.343 113.259 156.503 113.582 156.652C118.556 158.939 124.291 158.569 129.75 158.153ZM102.666 77.893C102.533 77.5974 102.673 77.2571 102.812 76.9649C106.654 68.9193 111.736 61.4674 117.824 54.9537C122.105 60.8992 124.955 67.8687 126.066 75.111C126.288 76.5586 126.048 78.5608 124.594 78.7419C117.628 79.6101 110.54 79.4922 103.607 78.3925C103.24 78.3343 102.817 78.2318 102.666 77.893ZM128.903 77.3965C127.468 69.5111 124.491 61.9093 120.188 55.1476C123.83 53.23 128.135 53.1987 132.251 53.2116C134.851 53.2198 137.689 53.3112 139.67 54.9944L134.531 70.1569C133.659 72.731 132.775 75.3771 132.885 78.0928L129.637 78.1449C129.521 78.1467 129.402 78.1479 129.295 78.1033C129.035 77.9947 128.953 77.6736 128.903 77.3965ZM170.697 116.199C171.56 114.731 172.383 113.163 172.47 111.463C176.356 113.211 180.636 114.077 184.897 113.977C185.565 113.962 185.542 114.993 185.267 115.603C184.438 117.449 183.608 119.297 182.647 121.079C181.662 122.908 180.543 124.662 179.425 126.413L176.748 130.611C176.381 131.186 176.003 131.773 175.458 132.183C173.996 133.282 171.909 132.753 170.241 132.004C167.474 130.761 164.926 129.029 162.752 126.913C165.772 123.638 168.44 120.039 170.697 116.199ZM70.1987 119.826C71.4865 121.125 72.328 122.788 73.1484 124.423L69.2854 124.974C67.9983 125.157 66.6786 125.351 65.541 125.981C64.4342 126.593 63.5805 127.575 62.8293 128.592C59.6875 132.849 57.9463 138.121 57.9353 143.412C57.9313 145.322 55.6729 146.686 53.8246 146.201C51.9762 145.717 50.7205 143.881 50.401 141.997C50.0815 140.113 50.5315 138.187 51.0958 136.361C53.082 129.937 56.6344 123.87 61.8906 119.676C62.8948 118.874 64.0044 118.124 65.2731 117.921C67.0787 117.633 68.9111 118.528 70.1987 119.826ZM232.418 130.58C232.865 131.154 233.197 131.853 233.176 132.581C233.149 133.521 232.554 134.344 231.912 135.032C228.184 139.028 222.453 140.389 217.025 141.03C216.666 141.072 216.292 141.11 215.956 140.979C215.681 140.871 215.459 140.659 215.262 140.437C213.952 138.965 213.434 136.906 213.539 134.938C213.646 132.97 214.325 131.075 215.172 129.295C215.349 128.92 215.555 128.526 215.919 128.325C216.208 128.164 216.554 128.152 216.885 128.143L223.455 127.971C225.072 127.929 226.707 127.888 228.291 128.221C229.873 128.555 231.424 129.303 232.418 130.58ZM159.206 68.5096C156.529 63.5498 154.527 58.2269 153.27 52.7327L154.351 49.8443C155.69 47.2542 157.375 44.8446 159.351 42.7005C160.156 41.8274 161.55 41.7308 162.66 42.1515C163.77 42.5722 164.664 43.4089 165.525 44.2254L169.404 47.8999C169.519 48.0091 169.639 48.1271 169.678 48.2813C169.75 48.5713 169.51 48.8371 169.294 49.0431C167.478 50.77 165.864 52.7169 164.571 54.8631C162.614 58.107 161.42 61.7423 160.242 65.3424L159.206 68.5096ZM169.118 40.6539C177.015 36.4244 185.651 32.4446 194.559 33.3963C199.216 33.894 203.67 35.7466 207.549 38.3709C196.438 35.5146 184.052 38.1493 175.064 45.281C173.675 46.3832 171.591 47.5804 170.354 46.3095C170.037 45.9833 169.829 45.5262 169.627 45.0808C169.303 44.3673 168.992 43.6839 168.266 43.6172C167.575 43.5534 167.265 42.6138 167.56 41.9835C167.853 41.3531 168.504 40.9821 169.118 40.6539ZM147.425 118.011C148.983 119.509 150.7 120.831 152.412 122.15L159.33 127.478C157.199 129.356 155.116 131.286 153.079 133.265C148.231 130.392 143.905 126.644 140.371 122.256C142.306 120.241 144.163 118.151 145.937 115.994C146.216 116.79 146.817 117.427 147.425 118.011ZM102.941 103.598C99.298 106.444 95.5319 109.44 93.5282 113.606C93.1366 114.42 92.8132 115.277 92.4902 116.132C91.8038 117.95 91.1195 119.762 89.7887 121.146C89.1986 120.973 88.9666 120.277 88.8229 119.68L87.4367 113.914C87.2497 113.136 87.0613 112.336 87.1675 111.543C87.2733 110.754 87.6625 110.035 88.0448 109.336L92.1121 101.904C92.2026 101.738 92.2968 101.568 92.4421 101.447C92.8018 101.148 93.3343 101.244 93.7886 101.355L102.941 103.598ZM162.121 129.131C164.605 131.686 167.693 133.649 171.06 134.816C171.689 134.223 172.905 134.55 173.154 135.378C171.995 136.881 170.724 138.297 169.352 139.609C168.741 140.195 167.76 140.072 166.934 139.882C162.898 138.956 159.012 137.387 155.466 135.251C155.23 135.108 154.962 134.905 154.985 134.629C155.002 134.444 155.148 134.299 155.284 134.173L160.264 129.587C160.786 129.106 161.626 128.623 162.121 129.131ZM225.692 65.0692C225.646 65.6311 225.568 66.2583 225.128 66.6117C225.124 62.1977 224.03 57.7886 221.969 53.8853C221.594 53.1773 221.189 52.4854 220.739 51.8238C220.683 51.742 220.627 51.6601 220.569 51.5781L220.564 51.571L220.563 51.5682C220.107 50.9117 219.642 50.2399 219.531 49.456L224.868 55.0296C225.358 55.5424 225.862 56.0775 226.095 56.7484C226.32 57.3954 226.265 58.101 226.21 58.7833L225.692 65.0692Z" fill="white"/>
<path fill-rule="evenodd" clip-rule="evenodd" d="M359.228 52.6567C361.657 53.4983 363.945 51.3084 366.037 49.8162C369.275 47.5076 373.5 46.6346 377.388 47.4706C378.033 47.6093 378.708 47.8175 379.133 48.3223C379.522 48.7839 379.631 49.4135 379.695 50.0135C380.077 53.6862 379.159 57.4816 377.139 60.5731C376.157 62.0769 374.925 63.4161 374.046 64.983C373.169 66.5499 372.667 68.4642 373.293 70.1482C377.013 80.1593 375.465 91.9675 369.287 100.68C363.11 109.393 352.479 114.761 341.8 114.562C336.339 114.46 330.988 113.002 325.842 111.169C323.597 110.369 321.129 109.492 318.9 110.336C314.835 111.877 310.554 112.85 306.221 113.218C305.145 113.31 304.022 113.357 303.03 112.932C301.544 112.297 300.648 110.687 300.477 109.08C300.307 107.474 300.751 105.866 301.312 104.351C303.004 99.7817 308.257 92.6434 311.437 90.9991C311.18 85.4502 311.208 79.8361 312.407 74.4124C313.607 68.9887 316.056 63.7257 320.071 59.8881C321.73 58.3028 323.629 56.9835 325.617 55.8387C335.675 50.0483 348.264 48.8565 359.228 52.6567ZM343.913 52.2062C336.222 52.3863 328.736 55.4755 322.724 60.2751C320.959 61.6843 319.3 63.2499 317.975 65.079C316.931 66.5211 316.105 68.1123 315.415 69.7535C311.32 79.4927 312.254 91.194 317.844 100.159C317.965 100.355 318.106 100.562 318.323 100.638C318.591 100.732 318.88 100.595 319.131 100.462C336.685 91.1068 352.31 78.1507 364.753 62.632C365.049 62.2625 365.361 61.8332 365.296 61.3638C365.248 61.0117 364.997 60.7258 364.751 60.4686C359.443 54.9018 351.604 52.0262 343.913 52.2062ZM354.664 110.345C363.002 106.431 369.336 98.6961 372.044 89.8924C372.657 87.8989 373.098 85.8382 373.141 83.7529C373.178 81.9993 372.932 80.2535 372.688 78.5165C372.334 75.9984 371.98 73.4801 371.627 70.9619C371.533 70.2944 370.89 69.4131 370.421 69.8966C357.374 83.3218 343.13 95.5809 327.91 106.48C327.404 106.843 326.846 107.291 326.819 107.914C326.788 108.634 327.475 109.156 328.099 109.517C336.079 114.118 346.327 114.26 354.664 110.345ZM303.236 109.32C303.843 110.293 305.157 110.492 306.304 110.524C312.316 110.69 318.264 108.929 323.643 106.238C329.023 103.547 333.891 99.948 338.623 96.2344C344.934 91.2815 351.056 86.0905 357.023 80.7279C364.412 74.0864 371.673 67.0419 376.524 58.3715C377.463 56.6944 378.329 54.8555 378.182 52.9392C378.034 51.0229 376.507 49.0884 374.586 49.1633C370.511 49.3222 366.505 50.8891 363.403 53.5368C362.786 54.0633 363.221 55.1841 363.98 55.4692C364.741 55.7542 365.586 55.4709 366.329 55.1434C367.07 54.816 367.843 54.433 368.649 54.5225C369.88 54.6594 370.755 55.9202 370.829 57.1571C370.901 58.394 370.355 59.5826 369.71 60.6409C368.517 62.5993 366.961 64.3065 365.386 65.974C351.395 80.797 335.254 93.5886 317.628 103.824C316.041 104.746 314.436 105.651 312.726 106.322C311.831 106.674 310.802 106.957 309.928 106.554C308.494 105.894 308.38 103.881 308.809 102.362C309.456 100.081 310.851 98.019 312.729 96.5718C312.374 95.57 312.017 94.5681 311.662 93.5662C307.027 96.5266 303.775 101.562 302.981 107.004C302.867 107.789 302.816 108.647 303.236 109.32ZM316.414 102.445C316.447 102.341 316.387 102.234 316.33 102.142C315.73 101.19 315.131 100.239 314.533 99.2878C314.262 98.8574 313.739 98.3699 313.332 98.6758C311.868 99.7781 310.82 101.42 310.437 103.211C310.361 103.565 310.317 103.96 310.511 104.266C310.869 104.835 311.724 104.708 312.358 104.481C313.707 103.998 315.007 103.376 316.231 102.628C316.306 102.582 316.387 102.529 316.414 102.445ZM368.5 57.1599C368.439 56.9129 368.145 56.8055 367.89 56.7944C367.119 56.7608 366.312 57.3949 366.361 58.1656C366.41 58.9362 367.556 59.4215 368.035 58.8156C368.179 58.6327 368.241 58.3995 368.298 58.1735C368.355 57.9497 368.412 57.726 368.469 57.5021C368.498 57.39 368.526 57.2724 368.5 57.1599Z" fill="white"/>
<path d="M62.2624 24.2436C59.2686 32.6404 62.3506 43.2034 71.858 46.5932C81.3654 49.9832 93.521 43.6406 94.9561 35.9006C96.9016 25.4092 90.9275 17.2566 82.8397 14.3729C74.7519 11.4892 65.2562 15.847 62.2624 24.2436Z" fill="black"/>
<path fill-rule="evenodd" clip-rule="evenodd" d="M82.3894 20.991C80.1872 20.641 81.0141 23.9997 79.524 24.425C79.4524 25.0204 79.9304 25.0892 79.3167 25.0063C79.7882 25.5774 79.0055 25.9799 78.8606 26.2854C78.6997 26.6234 78.4767 27.5492 78.4431 27.8403C78.4054 28.1665 78.8272 28.7544 78.2774 28.3053C78.1523 28.8892 77.8469 29.5239 77.694 30.3251C76.9141 30.5613 76.223 31.1429 75.3323 31.5799C73.9255 32.27 71.0439 32.7535 70.7682 34.4083C71.0315 34.6304 71.3084 34.9308 71.6561 34.9864C71.6874 34.9915 72.935 34.6097 73.2011 34.4888C75.2312 33.5684 77.099 32.1475 78.9427 31.4251C80.0839 28.0071 81.6941 24.5866 82.3894 20.991Z" fill="white"/>
<path fill-rule="evenodd" clip-rule="evenodd" d="M81.3205 17.3344C80.5435 17.1247 79.5229 16.8869 78.7779 16.8212C77.7108 16.7263 76.7004 17.2409 75.7863 16.803C75.1911 17.3896 74.2921 16.8819 73.3925 17.784C73.1371 17.1928 74.0938 17.3378 74.3287 17.0694C73.0222 17.5962 71.9489 17.4485 71.3646 18.5025C70.9409 18.3372 71.7584 18.2099 71.368 18.1104C70.9895 18.5477 70.2939 18.3489 70.1451 19.2468C69.2666 18.7039 68.7167 20.3066 67.8307 20.3875C66.9531 21.906 65.7146 22.5336 65.4919 24.2716C65.3269 24.1832 65.5737 23.9098 65.3746 23.8365C64.9509 24.1184 65.1577 24.7601 64.839 24.956L64.7179 24.913L64.0547 26.7733C62.5604 34.3769 65.317 40.1869 72.5938 44.1025L74.6492 44.8353C78.9284 46.0514 83.681 44.7899 87.1619 42.6131C96.41 35.5731 92.9272 21.473 81.3205 17.3344ZM71.803 42.1169C70.8578 41.2485 70.1007 40.5326 68.8736 39.6309C69.0907 39.3374 68.8107 39.2689 68.9598 39.0064C68.0608 39.3393 67.9865 37.8059 67.6818 37.2401C67.0807 37.2218 67.8066 37.5194 67.395 37.6621C67.0209 37.5454 67.2712 36.9357 67.4018 36.8788C67.2413 36.2192 66.7322 36.3234 66.4415 35.7499C66.5556 35.5969 66.5798 35.8511 66.8043 35.8793C66.4439 35.4439 66.6289 35.0458 65.8854 34.6344C66.3328 33.7071 65.7959 32.8393 65.5884 31.6453C65.4117 30.6294 65.8755 29.6582 65.5367 28.3507C65.8761 29.122 66.3001 26.4485 66.694 25.487C67.6074 23.2582 69.8569 21.7108 71.3093 20.187C72.6716 19.8619 73.8305 19.1289 75.123 18.6636C76.6938 18.4641 78.1651 18.6465 79.8555 18.3853C84.6349 19.272 89.2659 23.0039 90.9788 26.938C91.7932 30.35 92.2071 34.1599 89.9943 37.7263C86.4978 43.3599 78.4869 46.0047 71.803 42.1169Z" fill="white"/>
</g>
<defs>
<clipPath id="clip0_5_2">
<rect width="368" height="353" fill="white"/>
</clipPath>
</defs>
</svg>
